<svg xmlns="http://www.w3.org/2000/svg" xmlns:xlink="http://www.w3.org/1999/xlink" viewBox="0 0 2373.99 1910.3"><defs><style>.cls-1{isolation:isolate;}.cls-2{opacity:0.31;}.cls-3{fill:#9d93ac;}.cls-4{opacity:0.8;}.cls-16,.cls-5{fill:#fff;}.cls-5{opacity:0.47;}.cls-35,.cls-6{opacity:0.1;}.cls-6{mix-blend-mode:multiply;}.cls-7{fill:#231f20;}.cls-8{fill:#e2de34;}.cls-50,.cls-9{fill:#edebd3;}.cls-10,.cls-11,.cls-14{fill:#9fad49;}.cls-10{opacity:0.75;}.cls-11{opacity:0.85;}.cls-12,.cls-13{fill:#bcd35f;}.cls-13{mix-blend-mode:soft-light;}.cls-15{fill:#2a3159;}.cls-17{fill:#e6e7e8;}.cls-18{fill:#f1f2f2;}.cls-19{fill:url(#linear-gradient);}.cls-20,.cls-21{fill:#d35f8d;}.cls-20,.cls-38,.cls-41{opacity:0.2;}.cls-22{fill:#ab4f4c;}.cls-23{fill:#f5b297;}.cls-24,.cls-28,.cls-41{fill:#f39683;}.cls-25{fill:#592b8d;}.cls-26{fill:#452277;}.cls-27{fill:#e6755a;}.cls-27,.cls-45{opacity:0.5;}.cls-28{opacity:0.61;}.cls-29{fill:#f4c1b0;opacity:0.6;}.cls-30{fill:#e59c83;}.cls-31{fill:#b7557d;}.cls-32,.cls-39{fill:#e8a087;}.cls-33{fill:#867c96;}.cls-34{fill:#efee46;}.cls-35{fill:#e97d6b;}.cls-36{fill:#9e466a;}.cls-37,.cls-38{fill:#ec9480;}.cls-39{opacity:0.71;}.cls-40{fill:#87decd;}.cls-42{fill:#58a596;}.cls-43{fill:#357c6e;}.cls-44{fill:#e5a189;}.cls-45{fill:#f2c3b1;}.cls-46{opacity:0.25;fill:url(#linear-gradient-2);}.cls-47{opacity:0.35;}.cls-48,.cls-49{opacity:0.63;}.cls-48{fill:url(#linear-gradient-3);}.cls-49{fill:url(#linear-gradient-4);}.cls-50{stroke:#edebd3;stroke-miterlimit:10;stroke-width:0.75px;}</style><linearGradient id="linear-gradient" x1="1123.05" y1="217.5" x2="1256.52" y2="1047.33" gradientUnits="userSpaceOnUse"><stop offset="0" stop-color="#592b8d"/><stop offset="1" stop-color="#46217c"/></linearGradient><linearGradient id="linear-gradient-2" x1="813.27" y1="312.38" x2="921.96" y2="312.38" xlink:href="#linear-gradient"/><linearGradient id="linear-gradient-3" x1="1208.77" y1="1125.94" x2="1208.77" y2="393.8" gradientUnits="userSpaceOnUse"><stop offset="0" stop-color="#b0b0ff"/><stop offset="1" stop-color="#fff"/></linearGradient><linearGradient id="linear-gradient-4" x1="1129.69" y1="1056" x2="1129.69" y2="214.58" xlink:href="#linear-gradient-3"/></defs><g class="cls-1"><g id="katman_2" data-name="katman 2"><g id="Layer_1" data-name="Layer 1"><g class="cls-2"><path class="cls-3" d="M2254,1134.8c-86.32-105.64-206-179.38-273.64-300C1901.12,693.56,1907.51,513.8,1845,363c-73.51-177.4-238.79-297-413.83-338.48s-358.68-12.88-530,43.91C756.5,116.34,610.8,190,522.28,323.11,403.93,501.15,405,759.28,257.53,909.54c-51.59,52.57-117.45,86.92-167,141.79-110,122-113.1,328-33,474.89s227.2,239.08,379.54,281.35,487.85,77,487.85,77a5158.85,5158.85,0,0,0,935.77,8.59c157-12.86,328.8-41.18,432.55-169.76C2423.78,1561.64,2385.41,1295.64,2254,1134.8Z"/></g><g class="cls-4"><path class="cls-3" d="M120,1130c86.32-105.64,206-179.38,273.64-300C472.87,688.73,466.48,509,529,358.14c73.51-177.4,238.79-297,413.83-338.48s358.68-12.88,530,43.9c144.66,47.94,290.36,121.55,378.88,254.72,118.35,178,117.3,436.17,264.75,586.43,51.59,52.57,117.45,86.92,167,141.79,110,121.94,113.1,328,33,474.89s-227.21,239.08-379.54,281.34-487.85,77-487.85,77a5158.85,5158.85,0,0,1-935.77,8.58c-157-12.85-328.8-41.17-432.55-169.75C-49.79,1556.81-11.42,1290.8,120,1130Z"/></g><polygon class="cls-5" points="598.06 1062.46 604.2 1081.38 624.1 1081.38 608 1093.07 614.15 1111.99 598.06 1100.3 581.97 1111.99 588.11 1093.07 572.02 1081.38 591.91 1081.38 598.06 1062.46"/><polygon class="cls-5" points="726.69 721.92 733.18 741.91 754.19 741.91 737.19 754.26 743.68 774.24 726.69 761.89 709.69 774.24 716.18 754.26 699.18 741.91 720.2 741.91 726.69 721.92"/><polygon class="cls-5" points="1975.05 1054.04 1981.54 1074.02 2002.55 1074.02 1985.55 1086.37 1992.04 1106.35 1975.05 1094 1958.05 1106.35 1964.54 1086.37 1947.54 1074.02 1968.55 1074.02 1975.05 1054.04"/><polygon class="cls-5" points="1783.24 1172.92 1788.25 1188.33 1804.45 1188.33 1791.35 1197.86 1796.35 1213.27 1783.24 1203.74 1770.14 1213.27 1775.14 1197.86 1762.04 1188.33 1778.24 1188.33 1783.24 1172.92"/><g class="cls-6"><path class="cls-7" d="M625.89,545l94.84-.63a15.62,15.62,0,0,1,15.69,15.47l.63,94.85a15.63,15.63,0,0,1-15.48,15.69l-94.84.63A15.63,15.63,0,0,1,611,655.51l-.63-94.84A15.63,15.63,0,0,1,625.89,545Z"/></g><path class="cls-8" d="M611.44,528.63l94.85-.64A15.64,15.64,0,0,1,722,543.47l.63,94.85A15.63,15.63,0,0,1,707.13,654l-94.85.63a15.62,15.62,0,0,1-15.68-15.48L596,544.31A15.62,15.62,0,0,1,611.44,528.63Z"/><path class="cls-9" d="M636.9,557.52a21.95,21.95,0,0,1,22.15,21.72,21.94,21.94,0,1,1,40.12,12.07l-.3.43a22.06,22.06,0,0,1-4.82,4.92l-34.48,35.16-35.18-34.49a21.51,21.51,0,0,1-4.9-4.81l-.31-.42a21.94,21.94,0,0,1,17.72-34.58Z"/><path class="cls-5" d="M1812.92,978.48A22.44,22.44,0,1,1,1790.55,956,22.44,22.44,0,0,1,1812.92,978.48Z"/><path class="cls-5" d="M1697.84,935.32a17.69,17.69,0,1,1-17.64-17.74A17.69,17.69,0,0,1,1697.84,935.32Z"/><path class="cls-5" d="M658.49,984.8A17.8,17.8,0,1,1,640.75,967,17.79,17.79,0,0,1,658.49,984.8Z"/><path class="cls-5" d="M565.93,936.19a13.3,13.3,0,1,1-13.26-13.33A13.31,13.31,0,0,1,565.93,936.19Z"/><path class="cls-5" d="M1847.76,844.36A13.3,13.3,0,1,1,1834.5,831,13.31,13.31,0,0,1,1847.76,844.36Z"/><path class="cls-10" d="M734,1689.69h906.29S1591.76,1441.54,1376,1393s-129.47,178-388.41,113.28S734,1689.69,734,1689.69Z"/><path class="cls-11" d="M1624.12,1689.69H768.19s45.86-271.79,249.65-325,122.27,195,366.82,124.07S1624.12,1689.69,1624.12,1689.69Z"/><path class="cls-12" d="M973.31,1616c-31.16,37.3-102.89,94.37-151.45,96.5-39.83,1.75-99.16-25.5-99.19-100.73,0-59.22-8.44-78.22-76.43-93.93s-137.6-57.18-96.57-133.81-77.83-102.27-32.18-156.66c43.74-52.12,63.37-1.64,128.06,17.81s78.28-34.46,139.34,10c57.9,42.21,23.68,133.69,114.21,133.88,64,.13,122.59,17.26,137.74,59.52C1052.12,1491.2,1002.34,1581.19,973.31,1616Z"/><path class="cls-13" d="M807.05,1367.48c.17-4.67-7.08-4.17-7.25.46q-1.86,50.68,0,101.39-69.91-54.4-136-113.54a2.91,2.91,0,0,0,0-.3,135.62,135.62,0,0,1,5.77-70.55c1.58-4.34-4.92-7.58-6.53-3.19a143.17,143.17,0,0,0-7.62,66.48c-6.94-6.26-13.93-12.46-20.8-18.8-29-26.77-57.65-54.1-83.46-84-3-3.49-9.12.45-6.08,4,39.89,46.27,85.54,87.8,131.73,127.91a164.32,164.32,0,0,0-55.58,17.5c-4.14,2.17-.13,8.23,4,6.08A154.88,154.88,0,0,1,681.32,1384a3.45,3.45,0,0,0,2.14-1l13.76,11.88q36.94,31.76,75.09,62-36.7,10.92-72.72,24c-4.39,1.6-2.12,8.49,2.27,6.89q38.16-13.9,77.14-25.33l.09-.05q42,33.24,85.44,64.73l.12.09q-36.74,10.92-72.78,24c-4.39,1.6-2.11,8.49,2.28,6.89q38.16-13.9,77.14-25.34a3,3,0,0,0,.62-.33q44.36,31.93,90,62c3.89,2.56,7-4,3.19-6.53-18.36-12.1-36.5-24.51-54.54-37.07a3.06,3.06,0,0,0,0-1,135.67,135.67,0,0,1,5.77-70.56c1.58-4.34-4.93-7.58-6.53-3.18a142.89,142.89,0,0,0-7.23,69.15q-48.52-34.05-95.46-70.28a3.19,3.19,0,0,0,.1-.63Q805.09,1420.92,807.05,1367.48Z"/><path class="cls-12" d="M1884,1273.68s41.07,77.83-30.9,114.58-2.77,82.54-74.85,162.94-133.44,169.19-226.86,154.23-167.93-52.17-120-111.15S1527,1504,1578.57,1436.37,1807.09,1222.28,1884,1273.68Z"/><path class="cls-13" d="M1853.69,1294.86c-27.63,17.15-51.59,38-73.08,61a158.83,158.83,0,0,0,2.24-30.61c-.12-5.14-9.36-8.74-9.24-3.54a149.18,149.18,0,0,1-6,47,3.62,3.62,0,0,0-.06,1.79c-41.89,48.66-74.91,104-114.35,154.54q-3.89-20.65-6.14-41c-.58-5.33-9.76-6.77-9.17-1.47q2.81,25.56,8.19,51.55c-8.92,11.23-18.1,22.38-28.91,32-12.64,11.21-29.08,17-44.41,25.12-29.77,15.74-43.53,46.14-70,65.08-3.9,2.78,3.63,9.71,7.49,7,15.42-11,26.41-25.88,38.77-39.61,10-11.16,21.54-19.53,34.91-26.65a4.88,4.88,0,0,0,3.75.42c16.14-5.36,34.69-5.48,54.57-.65,6,1.45,4.49-6.92-1.43-8.36a120.41,120.41,0,0,0-33.3-3.53c24-14.6,40.49-36.28,57.08-57.85,20.2-26.27,38.82-53.71,57.94-80.78.47-.68,1-1.35,1.43-2a4.29,4.29,0,0,0,.79-.07q26.74-5.31,54.78-8.06c5.45-.53,1.73-9-3.71-8.45q-22.63,2.2-44.4,6.13c36-50.06,75.32-98.1,129.78-131.9C1865.29,1299.27,1857.74,1292.35,1853.69,1294.86Z"/><path class="cls-14" d="M1892.24,1455.57c-.66-1.82-1.36-3.52-2.1-5.15l-.22-.52h0c-16.65-36.05-51.53-22.31-60.37-18.08,6.89-11.37,13.56-22.84,20.17-34.25a2.82,2.82,0,0,0,.35-2.44c6.87-5.37,36.22-31.26,10.41-62.61v-.07l-.45-.49c-1.13-1.33-2.31-2.67-3.65-4a28.74,28.74,0,0,0-2.25,2l-.14.12c-7.27,6.94-27.46,30.51-7.54,62.73a3.66,3.66,0,0,0-3.35,1.84q-5.25,9-10.56,18.07c1.9-14.12-1.17-32.49-24.93-42.51l0-.05-.52-.18c-1.63-.68-3.35-1.32-5.2-1.91,0,0-.43,1-1,2.76l-.07.21v0c-3.19,9.44-10.09,39.26,21.65,58.57-6.45,10.58-13.1,21.05-20.11,31.25.61-8.51-2-18.12-10.36-28.3v0l-.43-.5c-1.14-1.33-2.34-2.66-3.67-4,0,0-.87.67-2.21,1.93l-.2.18v0c-7.27,7-27.52,30.61-7.39,62.91a281.9,281.9,0,0,1-35.52,35.79c-1.27,1.09-2.58,2-3.86,3.06,6.36-14.4,9.53-35.88-14.2-53.43h0l-.12-.08c-1.66-1.2-3.41-2.43-5.35-3.6,0,0-27.15,34.61,4.45,68a181.57,181.57,0,0,1-62.2,25c13.14-9,28.39-26.34,16.06-54.55l0-.05-.24-.47c-.8-1.75-1.64-3.54-2.66-5.41,0,0-1,.41-2.65,1.24l-.44.24c-9.46,5-36.86,23.12-26.53,61.58a220.83,220.83,0,0,1-63.74-2.44l-.11,0c14.43-6.39,31.52-20.33,25.43-49.51l0,0-.1-.4c-.42-1.92-.91-3.89-1.52-5.94,0,0-42.51,7.55-42,52.32-36.48-7.61-72.77-17.31-109.78-16,15-12.5,34.27-37.17,13-71.52v-.07l-.48-.7c-1.23-1.94-2.57-3.93-4.07-5.94,0,0-46.85,27.15-25.64,79.72-4,.53-8.09,1.19-12.14,2.07-15.91,3.41-30.73,9.68-44.68,17.7,12.37-16.4,22.86-42.83-2.17-72.19l0,0-.49-.52c-1.66-1.91-3.42-3.84-5.36-5.73a41.47,41.47,0,0,0-3.29,3h0c-10,9.87-37.56,43.27-9.17,87.82a9.18,9.18,0,0,1,5.16,7.85c29.33,44.68,71.33,32.81,84.45,27.63l.09,0c2.56-1,4-1.78,4-1.78-1-2.54-2-4.91-3.07-7.2l-.3-.69-.06,0c-17.28-35.76-46.92-35.8-67-30.62,17.53-10.12,36.4-17.47,57-20.41.18.36.31.65.49,1,0,0,1-.51,2.58-1.48,1.08-.13,2.19-.19,3.28-.29,24.13,59.58,80.21,40.57,80.21,40.57-.54-2.54-1.17-4.92-1.84-7.18l-.15-.6-.06,0c-4.3-14.06-11.18-23.27-19.13-29.11,19.76,3.49,39.31,8.42,59,12.49,0,.33,0,.67.1,1,0,0,1-.12,2.59-.44l2.37.5c1.49,44.15,35.79,52,46.88,53.44h0c2.13.26,3.39.3,3.39.3.28-2.08.46-4.06.58-6l0-.54h0c1.36-26.32-13.34-38.07-27.3-43.29a222.25,222.25,0,0,0,28.64,2.17,200,200,0,0,0,24.78-1.36c4.27,38.84,35.86,46.06,46.4,47.38v0h0c2.12.27,3.39.3,3.39.3.29-2.09.47-4.07.58-6l0-.55,0,0c1.44-28.46-15.87-39.88-30.71-44.41a191.65,191.65,0,0,0,63.46-26.87l.1.1c9.66,36.52,41.24,39.54,51.71,39.52l.32,0c2,0,3.09-.12,3.09-.12,0-2.14,0-4.17-.18-6.12v-.44h0c-2.52-33.25-27.59-40-43.48-41a228.08,228.08,0,0,0,21.36-18.11,306.68,306.68,0,0,0,23.84-25.75c24.34,40.48,63.72,20.91,63.72,20.91-.65-1.83-1.36-3.52-2.09-5.12l-.21-.53-.05,0c-15.55-33.65-46.9-24-58.24-19.07,14.67-18.19,27.58-37.81,39.8-57.81C1852.45,1475.35,1892.24,1455.57,1892.24,1455.57Z"/><path class="cls-12" d="M665.52,1487.93l.26-.34h0c30.55-37,67.87-.5,67.87-.5-30.26,31-60.23,14-69.12,7.64l-.24-.19c-1.55-1.12-2.4-1.84-2.4-1.84C663.11,1491,664.32,1489.41,665.52,1487.93Z"/><path class="cls-12" d="M727.66,1560h0c11.69-25.22,31.83-27.21,46.69-24.37a187.21,187.21,0,0,1-42.54-52,2.77,2.77,0,0,1-.33.09,10.06,10.06,0,0,1-.24-1.05,219.5,219.5,0,0,1-15.9-36.58,300.38,300.38,0,0,1-8.86-33.07C667.09,1436.79,642,1402,642,1402c1.4-1.27,2.78-2.41,4.14-3.46l.42-.37h.06c28.72-22,51.37.66,58.93,10-4.38-22.37-6.61-45.18-8-68-39.77,24.58-65.11-10.59-65.11-10.59,1.4-1.27,2.77-2.42,4.16-3.48l.42-.36h0c30.77-23.54,54.62,4.18,60.33,11.85-.78-13-1.32-25.88-1.84-38.73a2.77,2.77,0,0,1,.81-2.26c-3.48-7.77-17-43.45,19.49-58.77l0-.06.61-.22c1.59-.64,3.21-1.26,5-1.82a27,27,0,0,1,1,2.74l.06.18c3.13,9.29,9.83,38.82-22,57.56a3.57,3.57,0,0,1,2.06,3.12q.42,10.17.89,20.4c4.78-13.06,15.79-27.51,40.85-25.36l0,0,.54.08c1.71.16,3.49.38,5.35.71,0,0-.08,1.06-.35,2.86l0,.22,0,0c-1.54,9.6-9.15,38.47-45.32,40.7.75,12.07,1.72,24.13,3.14,36.13,3.34-7.63,10-14.74,21.81-19.72l0,0,.6-.23c1.59-.63,3.22-1.23,5-1.8,0,0,.45,1,1,2.67l.1.24h0c3.12,9.32,9.84,38.94-22.22,57.66a274,274,0,0,0,14.37,47c.6,1.52,1.31,2.92,1.94,4.39,1.06-15.32,8.09-35.3,36.56-39.65v0H767c2-.29,4-.55,6.25-.68,0,0,7.7,42.22-34.75,56.64a177.11,177.11,0,0,0,42.33,49.84c-7.25-13.74-12.52-35.65,11-54.38v0l.43-.3c1.48-1.15,3-2.31,4.75-3.46,0,0,.69.82,1.73,2.28l.26.4c5.89,8.62,21.31,36.72-5.11,65.21A215.73,215.73,0,0,0,849.92,1568l.1,0c-9.54-12.08-18-31.89.58-54.3l0,0,.27-.31c1.24-1.46,2.55-2.94,4-4.43,0,0,33.26,25.85,12.49,64.27,34.95,10,70.68,18.15,102,36.16-7.26-17.61-12.67-47.67,21.28-67.66l0-.06.73-.38c2-1.12,4-2.23,6.21-3.28,0,0,28.1,44.74-14.12,80.46,3.26,2.31,6.45,4.71,9.54,7.31,12.18,10.18,22.11,22.33,30.51,35.6-3.22-19.78-.25-47.36,34.7-61.32v0l.66-.23c2.3-.89,4.7-1.75,7.23-2.51a41.26,41.26,0,0,1,1.48,4.07h0c4.13,13.07,12.74,54.43-32,80a9,9,0,0,0-8,4.43c-45.63,25.22-76.48-4.12-85.46-14.56l-.06-.06c-1.74-2-2.64-3.35-2.64-3.35,2-1.76,4-3.33,5.93-4.82l.57-.46H946c31.17-23,56.77-9.56,71.71,4-10.53-16.71-23.47-31.64-40-43.55l-.88.64s-.61-.88-1.56-2.45c-.87-.61-1.8-1.16-2.69-1.74-47.92,40.45-87.68-1.47-87.68-1.47,1.62-1.94,3.25-3.71,4.85-5.36l.41-.44h.06c10.11-10.18,20.23-15,29.75-16.43-18.64-6-37.76-10.61-56.62-16-.18.26-.35.54-.53.8,0,0-.78-.53-2.05-1.55-.75-.23-1.51-.44-2.26-.66-21.37,37.44-54.56,28.65-64.77,24.81h0l0,0c-2-.74-3.07-1.28-3.07-1.28.7-1.93,1.45-3.72,2.23-5.44l.21-.48h0c10.8-23.33,28.82-26.79,43.24-24.94a219.21,219.21,0,0,1-25.7-11.15,199,199,0,0,1-20.77-12.44c-21.35,31.57-51.89,23.44-61.6,19.78v0l0,0c-1.95-.73-3.06-1.28-3.06-1.28.7-1.94,1.44-3.73,2.23-5.44Z"/><path class="cls-12" d="M1027.85,1697.59c-50.52,10-147.63,9.15-189-21.45-34-25.1-64.68-87.09-14.57-149.07,39.45-48.78,45.18-70-.34-128.3s-75.23-138.79,9.63-174.56,4.06-136.1,77.91-150.48c70.76-13.77,53.28,40.89,93.61,100s87.43,23.79,108.06,101.14c19.56,73.34-69.59,125.89,4.84,186.37,52.65,42.79,89.46,95.91,73.78,140.81C1175.9,1647.38,1074.93,1688.31,1027.85,1697.59Z"/><path class="cls-13" d="M1056.51,1382.15c3.25-3.73-3-8.15-6.27-4.45q-35.31,40.5-67.57,83.51-21.31-91.39-36.32-184.13c.07-.09.15-.13.21-.24a143.66,143.66,0,0,1,51.78-54.26c4.19-2.53,1-9.53-3.26-7a151.47,151.47,0,0,0-50.58,49.67c-1.54-9.78-3.17-19.55-4.6-29.35-6.07-41.39-11.43-83-12.74-124.83-.15-4.89-7.8-5.71-7.65-.78,2,64.69,11.93,129.32,23.25,193.14a174,174,0,0,0-57.45-22.63c-4.86-1-5.59,6.69-.77,7.65a164.11,164.11,0,0,1,57.4,23.5,3.66,3.66,0,0,0,2.45.57q1.71,9.48,3.42,19,9.26,50.76,20.5,101.13-37.5-15.48-75.87-28.73c-4.68-1.61-7.4,5.59-2.71,7.2q40.68,14,80.41,30.54s.07,0,.11,0q12.46,55.39,27.22,110.26s0,.09,0,.14q-37.53-15.48-75.92-28.75c-4.68-1.61-7.4,5.59-2.71,7.19q40.68,14,80.41,30.55a3.35,3.35,0,0,0,.73.14q15.26,55.86,32.79,111c1.49,4.7,8.45,1.41,7-3.25-7.06-22.2-13.72-44.51-20.21-66.88a3.27,3.27,0,0,0,.69-.81A143.76,143.76,0,0,1,1072,1547c4.19-2.52,1-9.52-3.26-7a151.32,151.32,0,0,0-52,52.14q-17.28-60.39-31.79-121.51a4.14,4.14,0,0,0,.5-.44Q1019.29,1424.85,1056.51,1382.15Z"/><path class="cls-12" d="M1380.52,1704c-43.9-10.42-121-46.35-142.94-85.8-18-32.36-19.92-93,42.56-124.16,49.18-24.56,61.48-39.44,46.35-102.42s-9.54-138,71.12-135.69,52.7-107.05,116.8-91.68c61.43,14.74,27.63,52,38.3,113.77s61.07,50.75,49.41,119.91c-11.06,65.6-101.24,75.1-63.87,150.37,26.43,53.25,36.48,109,7.65,139.09C1516.82,1717.72,1421.44,1713.66,1380.52,1704Z"/><path class="cls-13" d="M1518,1462.85c4-1.8.53-7.61-3.39-5.83q-42.87,19.45-84.22,42,16.21-80.62,37.95-160c.09-.06.17-.06.26-.12a125.85,125.85,0,0,1,61-24.45c4.26-.49,4.26-7.24-.06-6.74a132.68,132.68,0,0,0-58.38,21.22c2.32-8.36,4.58-16.74,7-25.07,10.21-35.21,21-70.32,35.22-104.17,1.65-4-4.15-7.39-5.82-3.4-21.91,52.31-37.49,107.45-51.65,162.45a152.35,152.35,0,0,0-37.59-38.92c-3.52-2.54-6.89,3.31-3.4,5.82a143.66,143.66,0,0,1,37.24,39.6,3.17,3.17,0,0,0,1.75,1.34q-2.1,8.19-4.17,16.36-11.07,43.85-20.41,88.09-24.27-26-50-50.48c-3.15-3-7.93,1.77-4.78,4.75q27.36,25.93,53,53.58s0,0,.08.06q-10.2,48.7-18.37,97.8a.51.51,0,0,1,0,.13q-24.29-26-50.08-50.51c-3.15-3-7.94,1.76-4.78,4.75q27.36,25.93,53,53.58a3.06,3.06,0,0,0,.53.38q-8.14,50.07-14.21,100.45c-.52,4.29,6.22,4.2,6.74-.06,2.44-20.26,5.23-40.48,8.19-60.67a2.68,2.68,0,0,0,.84-.4,126.08,126.08,0,0,1,61-24.45c4.26-.49,4.25-7.23-.06-6.74a132.52,132.52,0,0,0-60.44,22.66q8.17-54.44,18.81-108.43a4,4,0,0,0,.56-.18Q1472.81,1483.36,1518,1462.85Z"/><rect class="cls-15" x="1159.74" y="612.57" width="52.39" height="1075.88"/><polygon class="cls-15" points="1124.06 801.62 802.31 1749.9 741.8 1749.9 1078.71 757.09 1124.06 801.62"/><polygon class="cls-15" points="1630.07 1749.9 1569.55 1749.9 1247.81 801.62 1293.15 757.09 1630.07 1749.9"/><g class="cls-6"><path class="cls-7" d="M1675.68,676.79l85.84-.57a14.14,14.14,0,0,1,14.2,14l.58,85.84a14.15,14.15,0,0,1-14,14.2l-85.85.58a14.16,14.16,0,0,1-14.2-14l-.57-85.85A14.16,14.16,0,0,1,1675.68,676.79Z"/></g><path class="cls-8" d="M1686.59,686l85.84-.58a14.15,14.15,0,0,1,14.2,14l.57,85.85a14.15,14.15,0,0,1-14,14.2l-85.84.57a14.15,14.15,0,0,1-14.2-14l-.57-85.84A14.14,14.14,0,0,1,1686.59,686Z"/><rect class="cls-9" x="1744.62" y="732.24" width="21.06" height="39.96" transform="translate(3506.43 1513.4) rotate(-179.71)"/><path class="cls-9" d="M1693.62,744.89h.2l0-6.89a6.61,6.61,0,0,1,6.64-6.58l18.57.1s-7.51-10.57-7.47-17.32c0-6,.34-14,9.25-14,0,0,3.23,2,3.18,11.09,0,8.37,17.18,20.88,17.18,20.88l-.21,41.31a15.26,15.26,0,0,1-9.74,3.47l-26.87-.14a6.89,6.89,0,0,1-6.85-6.92l0-4.19a4,4,0,0,1-4-4.07l0-4.86a2.43,2.43,0,0,1-2.42-2.44l0-7A2.43,2.43,0,0,1,1693.62,744.89Z"/><rect class="cls-8" x="1595.46" y="450.59" width="154.05" height="154.05" rx="38.97"/><path class="cls-16" d="M1740.32,489.56v76.11a29.76,29.76,0,0,1-29.76,29.78h-76.13a29.77,29.77,0,0,1-29.77-29.78V489.56a29.78,29.78,0,0,1,29.77-29.78h76.13A29.77,29.77,0,0,1,1740.32,489.56Z"/><path class="cls-17" d="M1707.21,586.94a70.2,70.2,0,0,1-.52,8.51h-72.26a29.77,29.77,0,0,1-29.77-29.78V526.52a69.09,69.09,0,0,1,102.55,60.42Z"/><path class="cls-18" d="M1740.32,521.37v44.3a29.76,29.76,0,0,1-29.76,29.78H1671a54.93,54.93,0,0,1,69.32-74.08Z"/><circle class="cls-17" cx="1686.07" cy="494.14" r="13.58"/><path class="cls-19" d="M1568,345.55a89.14,89.14,0,0,0-88.68-89.87l-388.06-1.07L921,254.17l-17.81-.06a89.16,89.16,0,0,0-89.68,88.74v.25l-.19,27.56-1.7,260.5h1.7l-1.7,288.12a89.15,89.15,0,0,0,88.74,89.87l288.12,1.7v-2l165.27,1.07,83.83.57,27.89.18,11,.07A89.3,89.3,0,0,0,1566.18,922L1568,633.68h-1.7ZM1190.45,631.41v2h-1.33v-2Z"/><path class="cls-16" d="M1545.55,362.59a83.84,83.84,0,0,0-83.45-84.52l-271,.27-270.9-1.75A83.9,83.9,0,0,0,835.79,360L834,631.2h1.61l-1.61,271a83.85,83.85,0,0,0,83.45,84.53l271,1.61v-1.88l270.89,1.74a83.9,83.9,0,0,0,84.39-83.44l1.75-271.17h-1.61ZM1190.4,633.35h-1.21v-1.88h1.21Z"/><path class="cls-12" d="M1545.55,362.59l-1.61,271v.14l-140.56-.94a72.33,72.33,0,0,0,32.12-57.92v-3.76c-.67-37.09-30.24-68-67.19-70.55a72.3,72.3,0,0,0-77.26,71.62c0,2.15.13,4.3.26,6.32a71.55,71.55,0,0,0,31.18,53.75l-132.09-.81h-1.21l.81-131.68A72.28,72.28,0,0,1,1136.65,531c-2.15.13-4.43.27-6.72.27a72.34,72.34,0,0,1-71.62-77.4c2.42-36.95,33.46-66.38,70.41-67.19h3a72.39,72.39,0,0,1,58.85,32.12l.81-140.42h-.27l271-.27A83.84,83.84,0,0,1,1545.55,362.59Z"/><path class="cls-20" d="M1545.55,633.62l-1.75,271.17a83.9,83.9,0,0,1-84.39,83.44l-270.89-1.74h-.27l.81-140.42a72.38,72.38,0,0,0,58.85,32.11h3c37-.8,68-30.23,70.41-67.19a72.33,72.33,0,0,0-71.62-77.39c-2.29,0-4.57.13-6.72.26A72.29,72.29,0,0,0,1189.59,765l.81-131.69v-1.88l132.09.81a71.55,71.55,0,0,1-31.18-53.75c-.13-2-.26-4.17-.26-6.32a72.3,72.3,0,0,1,77.26-71.62c37,2.55,66.52,33.46,67.19,70.55v3.76a72.33,72.33,0,0,1-32.12,57.92l140.56.94v-.14Z"/><path class="cls-20" d="M1321.28,811c-2.42,37-33.46,66.39-70.41,67.19h-3a72.38,72.38,0,0,1-58.85-32.11l-.81,140.42h.27v1.88l-271-1.61A83.85,83.85,0,0,1,834,902.23l1.61-271v-.13l140.56.94a72.06,72.06,0,0,0-32.12,57.78v3.9c.67,37.08,30.24,68,67.19,70.54a72.29,72.29,0,0,0,77.26-71.62c0-2.15-.13-4.3-.26-6.31a71.54,71.54,0,0,0-31.18-53.75l132.09.8h1.21L1189.59,765a72.29,72.29,0,0,1,53.35-31.18c2.15-.13,4.43-.26,6.72-.26A72.33,72.33,0,0,1,1321.28,811Z"/><path class="cls-21" d="M1058.31,453.83a72.34,72.34,0,0,0,71.62,77.4c2.29,0,4.57-.14,6.72-.27A72.28,72.28,0,0,0,1190,499.79l-.81,131.68v1.88l-132.09-.8a71.54,71.54,0,0,1,31.18,53.75c.13,2,.26,4.16.26,6.31a72.29,72.29,0,0,1-77.26,71.62c-36.95-2.55-66.52-33.46-67.19-70.54v-3.9A72.06,72.06,0,0,1,976.21,632l-140.56-.94v.13H834L835.79,360a83.9,83.9,0,0,1,84.38-83.45l271.17,1.75-.81,140.42a72.39,72.39,0,0,0-58.85-32.12h-3C1091.77,387.45,1060.73,416.88,1058.31,453.83Z"/><path class="cls-22" d="M733.11,1766.55a54.36,54.36,0,0,1-10.32-3,1.09,1.09,0,0,0-.42-.18c-2.47-1-5-2.13-7.39-3.31-3.76-1.81-7.49-3.76-11.11-5.89l-1.5-.87c-.49-.28-1-.56-1.43-.84-.87-.52-1.71-1-2.55-1.57-.41-.24-.9-.55-1.42-.83l-.25-.14c-2-1.19-4.6-2.69-5.89-4.43a.9.9,0,0,1-.14-.17,4.59,4.59,0,0,1-.56-1c-1.32-3.84,0-21.65,2.86-25.55.42-.21,8.23-3.07,10-1.61,3.35,2.69,1.29,11,1.08,14s.21,5.37,1.92,6.62c3.94,3,20.07,12.13,29.73,15,5,1.49,8.29,1.25,7.11-2.51-2.34-7.29-13-12.62-19.94-15.34-3.38-2.58-6-4.32-5.71-4.32.73,0,34.61,16.45,37.32,24.88C757,1762.89,743.63,1767.63,733.11,1766.55Z"/><path class="cls-23" d="M752.17,1758.68a4.45,4.45,0,0,1-1.11,2.33,1.86,1.86,0,0,1-.35.42s-.07,0-.1.07,0,.07-.07.07a5.06,5.06,0,0,1-1,.87v0a10.57,10.57,0,0,1-2.13,1l-.14.07c-.48.17-1,.35-1.56.49,0,0,0,0,0,0l-2,.42s-.07,0-.07,0a38,38,0,0,1-4.32.48c-.69.07-1.32.07-2,.11h0c-.74,0-1.47,0-2.09,0h-2.93c-4.32,0-40.89-20.46-40.4-26.07a50.08,50.08,0,0,1,.77-5.26c.73-3.77,1.67-6.8,1.67-6.8a36.9,36.9,0,0,1,5-1.7,10,10,0,0,1,2.44-.32,22,22,0,0,1,12.93,4.6l3,1.5c8.71,4.39,33.6,17.57,34.64,25.34A6.36,6.36,0,0,1,752.17,1758.68Z"/><path class="cls-24" d="M737.3,1765.16c.61,0,1.26,0,1.94-.11a2.2,2.2,0,0,0,1.54-2.47c-.18-3.72-9.67-5.84-10.89-6.09.86.39,7.92,3.69,8.38,5.84A2.36,2.36,0,0,1,737.3,1765.16Z"/><path class="cls-24" d="M743.65,1764.52c.64-.11,1.32-.26,2-.4a0,0,0,0,0,0,0,1.88,1.88,0,0,0,.5-1.51c-.14-2.9-7.56-4.55-8.45-4.73.79.36,6.16,2.9,6.52,4.55A2.06,2.06,0,0,1,743.65,1764.52Z"/><path class="cls-24" d="M747.37,1763.51a9.65,9.65,0,0,0,2.11-1s0,0,0,0a1.36,1.36,0,0,0,.08-.58c-.11-2.36-6.2-3.72-6.95-3.86.53.25,5.08,2.36,5.37,3.72A1.52,1.52,0,0,1,747.37,1763.51Z"/><path class="cls-24" d="M750.6,1761.51a.36.36,0,0,0-.15.07h.07C750.6,1761.58,750.63,1761.54,750.6,1761.51Z"/><path class="cls-24" d="M751.2,1759.68a1.65,1.65,0,0,1-.14,1.32,4.54,4.54,0,0,0,1.11-2.32c-1.54-1.65-5.69-2.62-6.34-2.73C746.37,1756.2,750.88,1758.32,751.2,1759.68Z"/><path class="cls-23" d="M655.7,1308.06l12.3,74.58,0,.17.24,1.29,25.37,141.72.6,187.65v.63l0,13a11.47,11.47,0,0,0,5.44,3.52c.77.25,1.53.46,2.3.63a80.53,80.53,0,0,0,15.34,2l.24-2.09,24.15-201.21,5.75-221.87Z"/><path class="cls-25" d="M623.09,1727.12s6.85-.29,8.56,8.84,1.81,23.11,3.63,31.42c2,9.12-7.12,16-18.81,15.39s-15.39.86-19.53-6.41c-4.71-8.29,3.71-17.39,6.42-24.66C608.57,1737.7,614.62,1726.47,623.09,1727.12Z"/><path class="cls-26" d="M623.1,1768.23c2.59,1.06,6.17,9.13-1.61,9.7s-23.08,1.71-22.81-4S608.34,1762.25,623.1,1768.23Z"/><path class="cls-27" d="M735.39,1743.32s11.45,16.93-11.45,11.45c0,0,14.37,8.23,21.28,3.11C748.09,1755.77,744.1,1745.06,735.39,1743.32Z"/><path class="cls-28" d="M734.78,1757.53h-2.89c-3.87,0-33.15-16.11-39.28-23.67.73-3.77,1.67-6.8,1.67-6.8l0-13,0-.63h0l-.6-187.65-25.65-143v-.14l.28-6.8,45.9,152L703.06,1699.6l.32.38c0,.21-.35,2.89-.73,6.31l-.7,10.28-.52-.24c-.07.38-.11.73-.14,1-.25,2.1-.42,3.56-.42,3.7a11,11,0,0,1-1.53,1.88,2.75,2.75,0,0,0-.11,2.41,32,32,0,0,0,2.79,5.85c.52.91,1,1.67,1.25,2.16,1.71,3,20.43,23.25,28.1,23C733.39,1756.37,734.43,1756.83,734.78,1757.53Z"/><path class="cls-25" d="M733.13,1766.35c-8.17-.92-15.69-4.87-23-8.87-4.66-2.54-9.32-5.09-13.86-7.84-5.93-3.59-6.39-7.19-6-13.76.25-4.24.43-10.05,3.28-13.49,0,0,2,16,16.69,23.67,11.68,6.13,22.73,9.58,25.52,6.73.73-.74.9-1.85.38-3.49-1.5-4.78-8.19-10.49-13.21-14.36-3.38-2.58-6-4.32-5.71-4.32.73,0,34.61,16.45,37.32,24.88,2.58,7.93-9.08,10.26-14.48,10.87A30.28,30.28,0,0,1,733.13,1766.35Z"/><path class="cls-23" d="M681.58,1302c-29.89-.21-59.79-.81-89.68-1.15l.08,1.47,0,.68,8.54,164.24,2.7,48.67,11.1,218.22s2,9.55-6.86,19.68,3.73,10.2,11.32,9.51c17.39-1.57,8.41-24.91,8.41-24.91l31.63-268.17Z"/><path class="cls-29" d="M666.49,1287.82c-4.54,7.47-2.24,278-56.74,234.37a49.43,49.43,0,0,1-6.5-6.31l-2.7-48.67-9.41-180.76Z"/><path class="cls-30" d="M683,1291.45l-87.73,5.89c1.91-.1-1.68,3.45-3.29,5-.41.4-.71.67-.71.67H592c7.82.25,74.87,2.66,77.44,18.89,2.7,17.24-30.44,197.43-30.44,197.43L620.18,1736.2s12.45,19.5-1.37,27.09c17.41,1.32,8.41-24.91,8.41-24.91l31.63-268.17Z"/><path class="cls-21" d="M756.9,1513.79c-11.92,23.46-161.31,26.74-172.71,3a122.6,122.6,0,0,1-5.8-14.43c-17.86-52.74-13.86-135.9,2.29-191.35,17.73-60.82,43.84-75.63,43.84-75.63l49.37,5.61,49.33-6.24s26.18,14.5,44.23,75.07S781.7,1465,756.9,1513.79Z"/><path class="cls-31" d="M756.9,1513.79c-11.92,23.46-161.31,26.74-172.71,3a122.6,122.6,0,0,1-5.8-14.43c28.27-10.6,106.5,3.73,140.61-9.45,46.32-18,11.23-88.14,30.89-133s-16.87-73.19-75.84-82.15-49.53-42.41-49.53-42.41l49.37,5.61,49.33-6.24s26.18,14.5,44.23,75.07S781.7,1465,756.9,1513.79Z"/><path class="cls-31" d="M615.09,1268.81s-42.12,127.9-9.83,218.09C605.26,1486.9,550.51,1375.39,615.09,1268.81Z"/><path class="cls-31" d="M719.69,1312.88s21.84,101.61,5.1,173.27C724.79,1486.15,753.18,1397.56,719.69,1312.88Z"/><path class="cls-31" d="M697.93,1284.49s16.21,75.41,3.78,128.59C701.71,1413.08,722.78,1347.34,697.93,1284.49Z"/><path class="cls-31" d="M631,1271.54s-15.35,51.08-14.58,80.92c0,0-1.15-63.13,8.44-83.21C624.9,1269.25,628,1265.81,631,1271.54Z"/><path class="cls-31" d="M655.61,1293.2s-15.35,51.08-14.58,80.92c0,0-1.15-63.13,8.44-83.21C649.47,1290.91,652.54,1287.46,655.61,1293.2Z"/><path class="cls-31" d="M634.75,1496.91s-17-56.66-16.18-89.77c0,0-1.28,70,9.36,92.32C627.93,1499.46,631.34,1503.28,634.75,1496.91Z"/><path class="cls-32" d="M732.33,1108.73l1.13,52.73c2.08-.12,22.24,36.79,44.07,18.24,14.35-12.18,1-47.42.69-75.3C762.91,1105.64,747.6,1107,732.33,1108.73Z"/><path class="cls-33" d="M729.13,1042.17s25.5-1.79,53.6,42.94c0,0-26,37-42.64,33.93S729.13,1042.17,729.13,1042.17Z"/><path class="cls-33" d="M782,1084.15s5.33-.13,5.56,6.08-27.11,33.22-41.92,32.16,1.34-8.16,1.34-8.16S780.64,1092.31,782,1084.15Z"/><path class="cls-33" d="M605.07,1042.71s-25.55,1-48.65,48.48c0,0,25.33,32.89,41.54,28S605.07,1042.71,605.07,1042.71Z"/><path class="cls-33" d="M557,1090.16s-5.31.44-4.87,6.64,30.54,30.09,45.15,27.44-2.21-8-2.21-8S559.24,1098.12,557,1090.16Z"/><path class="cls-34" d="M736.38,1178.55c-6.5,49.66,4.64,69.37,4.23,83.48-.15,6.06-2.44,11.06-9.13,17-.51.46-1,.9-1.57,1.36-22.95,18.84-95.68,18.69-118.75,0-1.25-1-2.39-2-3.43-3-23.38-23.35,34.81-32.22-20.7-170.7a132.65,132.65,0,0,1-6.35-19.71c0-.05,0-.07,0-.12-2.92-12.71-2.24-21.81.44-28.33,4-9.69,12.37-13.68,20.12-15.32.34,0,.7-.12,1.06-.19a261,261,0,0,1,30.58-3.33,654.81,654.81,0,0,1,79.81.65c9.64.7,18.36,1.59,25.51,2.68a35.21,35.21,0,0,1,10.05,2.7c4.95,2.44,8.67,7,9.95,16.48,0,.07,0,.17,0,.24a105.4,105.4,0,0,1,1,10.58,79.75,79.75,0,0,1-4.18,28.74c-12.24,30.41-17.19,55.63-18.62,76.77Z"/><path class="cls-35" d="M736.38,1178.55c-6.5,49.66,4.64,69.37,4.23,83.48a28,28,0,0,1-9.13,17c-.51.46-1,.9-1.57,1.36-22.95,18.84-95.68,18.69-118.75,0-1.25-1-2.39-2-3.43-3-23.38-23.35,34.81-32.22-20.7-170.7a132.65,132.65,0,0,1-6.35-19.71c0-.05,0-.07,0-.12-2.17-13-1.71-22,.44-28.33,3.55-10.58,11.79-13.68,20.12-15.32.34,0,.7-.12,1.06-.19a261,261,0,0,1,30.58-3.33C585.49,1127.82,661,1144.37,661,1144.37c-41.4,17.27-52.61,109.06-35.36,136s91.79.7,108.36-24.83-47.1-109.57-47.1-109.57,86.42-41.93,25.72-105.7c9.64.7,18.36,1.59,25.51,2.68a35.21,35.21,0,0,1,10.05,2.7c4.95,2.44,8.67,7,9.95,16.48,0,.07,0,.17,0,.24.22,3.33.7,6.81,1,10.58a58.79,58.79,0,0,1-4.18,28.74c-12.24,30.41-17.19,55.63-18.62,76.77Z"/><path class="cls-36" d="M709.89,873.48c19.74,14.9,36.55,21.76,26.91,63-5.42,23.25,22.6,20.32,4.72,58.64-11.31,24.25-90,53.88-113.63,29.17-12.12-12.66-53.4-50.39-33.69-73.08,25.58-29.45-3.52-80.09,64.33-83.44C695.1,866,697.91,864.44,709.89,873.48Z"/><path class="cls-23" d="M626.77,941.62s-10.53-8.12-15.36,1.29,6.31,23.51,15.4,22.59Z"/><path class="cls-37" d="M626.78,947c-2.39-1.27-6.72-2.65-9.08,2-3.09,6.05,3.14,14.81,9.1,15.82Z"/><path class="cls-23" d="M711.5,941.62s10.53-8.12,15.36,1.29-6.31,23.51-15.4,22.59Z"/><path class="cls-37" d="M711.46,964.74c6-1,12.2-9.77,9.11-15.82-2.36-4.61-6.69-3.23-9.08-2Z"/><path class="cls-23" d="M650.85,1042.2s7.28,11,19.87,11,21.55-10.62,21.55-10.62-.49-11.27-.89-20.73c-.23-6.29-.44-11.78-.44-12.71H651.17l-.16,16.23Z"/><path class="cls-37" d="M651,1025.32c6.26,5.22,13,8.61,18.25,8.61,6.33,0,14.91-5,22.12-12.13-.23-6.29-.44-11.78-.44-12.71H651.17Z"/><path class="cls-23" d="M627.71,990.45c5.35,10.6,29,34.85,41.55,34.85s36.21-24.25,41.56-34.85c10.19-20.17,3-78.44,3-78.44a7.31,7.31,0,0,0-.44-1.65c-1.31-3.44-5.14-6.22-10.5-8.34-23.34-9.22-75.87-5.88-78.13,10C624.73,912,617.52,970.28,627.71,990.45Z"/><path class="cls-23" d="M703.73,1039.41s-3.68,27.15-30.5,27.15h-4c-26.82,0-30.51-27.15-30.51-27.15Z"/><path class="cls-38" d="M688.54,980.76a8.08,8.08,0,1,0,8.07-8.08A8.07,8.07,0,0,0,688.54,980.76Z"/><path class="cls-38" d="M630.15,980.76a8.08,8.08,0,1,0,8.07-8.08A8.07,8.07,0,0,0,630.15,980.76Z"/><path class="cls-37" d="M716.29,936.29s-18.5,3.5-26.51-9c0,0-43.52,22.51-66.77,2.5l68.77-21Z"/><path class="cls-36" d="M605.25,880.27c14.25-2.25,18.51.75,18.51.75s86.28-27.77,90.78,13.5c0,0-1,1.32-2.78,3.47,16,6.91,20.12,28,10.29,36.3-8.31,7-21.83-5.17-30.71-16.95C674.53,930,648.54,944.25,623,929.79,579.74,905.28,591,882.52,605.25,880.27Z"/><path class="cls-23" d="M912.17,1175.39s-65.88,11.45-112.85,13.58c-9,.41-16.4.57-21.34.35a37.54,37.54,0,0,1-4.18-.29c-15.6-2.13-26.62-7.3-26.06-20a60,60,0,0,1,2.31-14.42c1-2.87,2.25-5.34,4.08-6.63,18.37-12.91,27.42-1.51,44.52-.86,12.65.47,27.51,1.41,42.07,2.49,2,.15,73.36.79,73.36.79Z"/><path class="cls-39" d="M810.18,1153c-33.16-3.78-50.79-1.27-60.13,1.59,1-2.87,2.25-5.34,4.08-6.63,18.37-12.91,27.42-1.51,44.52-.86,12.65.47,27.51,1.41,42.07,2.49l6.06.46C849.45,1153.11,836.93,1156,810.18,1153Z"/><path class="cls-37" d="M905.63,1173.69a10.93,10.93,0,0,0,1.77,4.09c6,8,38.6-3.84,43.6-11.56,4-6.21,3.87-28.71-1-34.28-5.26-6-19.84,3.29-30.82,8.46C909.7,1144.85,903.35,1163.55,905.63,1173.69Z"/><path class="cls-40" d="M782.61,1065.6a57.13,57.13,0,1,0,63.15,10.56L950,1093.59l-13,77.52a62,62,0,1,1-19.34,115.68l-14,83.73-211.46-35.35a66.4,66.4,0,0,1-54.53-76.43L673,1047.28Z"/><path class="cls-23" d="M632,1294.57l2.47-3.54.05-.1,14.84-21.7-68.51-105.3s12.21-18,15.37-32.57c0,0-3-6.75-2.46-7.07-1.18,0-39.59-23.89-39.69-23.89-11.41,21-14.68,39.1-16.77,51.42-.53,3.43-1,6.38-1.55,8.84C530.73,1184.17,632,1294.57,632,1294.57Z"/><path class="cls-23" d="M675.19,1279.59l.23.26c2,3.05,4.67,13.29,4.67,13.29s11.28,10.88,7.64,17.45c-.32.62-.82,1.45-1.26,2.32-.79,1.3-1.66,2.71-2.72,4.24l0,0A42.55,42.55,0,0,1,680,1322a22.59,22.59,0,0,1-3,3,28,28,0,0,1-2.79,2.14,16.18,16.18,0,0,1-3.68,2l0,0a21.34,21.34,0,0,1-3.79,1l-.06,0a13.25,13.25,0,0,1-5.43-.25l0,0a9,9,0,0,1-1.71-.5,23,23,0,0,1-3.38-1.59c-15.37-9-29.77-28.2-29-38.66a7.33,7.33,0,0,1,.53-2.29,9.4,9.4,0,0,1,.83-1.8c2.58-4.6,8-8.64,12.71-11.47a81.21,81.21,0,0,1,7.89-4.2S672,1276.22,675.19,1279.59Z"/><path class="cls-24" d="M686.29,1312.4a2.28,2.28,0,0,1,.15.53c-.76,1.26-1.64,2.69-2.68,4.24l0,0c-4-.9-13-7.59-13.48-8.71C670.25,1308.49,682.34,1315.7,686.29,1312.4Z"/><path class="cls-24" d="M680,1322a31.9,31.9,0,0,1-3,3.06c-3.07-1.77-8.61-8.31-8.86-9.38C668.77,1316.22,676.22,1323.25,680,1322Z"/><path class="cls-24" d="M674.26,1327.19a19.24,19.24,0,0,1-3.72,2c-3.13-2.45-7.34-7.48-7.56-8.47C663.53,1321.28,670.34,1327.7,674.26,1327.19Z"/><path class="cls-24" d="M666.69,1330.24a15.11,15.11,0,0,1-5.44-.28l0,0c-2.48-2.5-4.84-5.42-5-6.15C656.77,1324.28,662.69,1329.9,666.69,1330.24Z"/><path class="cls-24" d="M680.1,1293.18l-15.41-11.81s5.93.94,7.32,2.28S680.1,1293.18,680.1,1293.18Z"/><path class="cls-41" d="M632,1294.57l2.47-3.54.05-.1c-5.3-7.07-84-113.88-90.15-126.63-2.78-5.78-5-10.34-7.07-12.48-.53,3.43-1,6.38-1.55,8.84C530.73,1184.17,632,1294.57,632,1294.57Z"/><path class="cls-23" d="M946.26,1130.43s-30.42,5.17-35,17.22,17.84,24.63,27.34,22.11C954.87,1165.44,955.44,1137.89,946.26,1130.43Z"/><path class="cls-23" d="M1609.84,1730.5l-1.37-22.71-4.79-.18-17.28-.56,3.68,26.73s-26.91,35.1-9.52,41.11S1612.64,1735.49,1609.84,1730.5Z"/><path class="cls-25" d="M1610.41,1743.25c-.29,9.64-16.81,40.81-27.76,39.36s-17.64-15.49-9.36-30.51,12.55-18.77,12.55-18.77-4.54-10.48-1.78-14.79l2.15.14c5.48.28,19.7.8,23.91-.93a1.24,1.24,0,0,1,.89-.1C1614.8,1718.45,1610.5,1739.23,1610.41,1743.25Z"/><path class="cls-26" d="M1610.12,1721.49c-8.23,9.78-24.56-.51-24.56-.51a1.9,1.9,0,0,1,.65-2.3c5.48.28,19.7.8,23.91-.93a1.24,1.24,0,0,1,.89-.1C1611.67,1718.64,1611.48,1719.9,1610.12,1721.49Z"/><path class="cls-26" d="M1589.08,1734.28s9,4.51,17.05,1.25c0,0-5.27,40.12-26.07,41.62S1589.08,1734.28,1589.08,1734.28Z"/><path class="cls-42" d="M1652.51,1261.52l-17.38,242-23.5,209.91a44.59,44.59,0,0,1-28.3.31l-14-212.7-17.41-239.54h100.61Z"/><path class="cls-23" d="M1665.27,1741c-.49,5.52,35.45,25.62,39.71,25.62h2.85c.64,0,1.34,0,2.08,0h0c.59,0,1.23,0,1.9-.11a35.43,35.43,0,0,0,4.26-.49.11.11,0,0,1,.07,0c.63-.11,1.3-.25,1.93-.39a0,0,0,0,0,0,0c.53-.14,1-.31,1.55-.49a.42.42,0,0,1,.14-.07,10,10,0,0,0,2.07-1v0a4.73,4.73,0,0,0,1-.84c.07,0,.1,0,.07-.07s.07,0,.1-.07a1.86,1.86,0,0,0,.35-.42,4.45,4.45,0,0,0,1.09-2.29,5.88,5.88,0,0,0,.07-2.15c-1.26-9.29-37-26.37-37-26.37a21.32,21.32,0,0,0-12.71-4.54c-2.25,0-4.65,1-7.25,2A70.46,70.46,0,0,0,1665.27,1741Z"/><path class="cls-24" d="M1710,1766.58c.59,0,1.23,0,1.9-.11a2.17,2.17,0,0,0,1.51-2.43c-.18-3.66-9.5-5.73-10.7-6,.84.39,7.78,3.63,8.24,5.74A2.33,2.33,0,0,1,1710,1766.58Z"/><path class="cls-24" d="M1716.18,1766c.63-.11,1.3-.25,1.93-.39a0,0,0,0,0,0,0,1.83,1.83,0,0,0,.49-1.48c-.14-2.85-7.43-4.47-8.31-4.64.78.35,6.06,2.85,6.41,4.47A2,2,0,0,1,1716.18,1766Z"/><path class="cls-24" d="M1719.84,1765a10,10,0,0,0,2.07-1s0,0,0,0a1.27,1.27,0,0,0,.08-.56c-.11-2.32-6.1-3.66-6.83-3.8.52.25,5,2.32,5.28,3.66A1.52,1.52,0,0,1,1719.84,1765Z"/><path class="cls-24" d="M1723,1763a.36.36,0,0,0-.15.07h.08C1723,1763.06,1723,1763,1723,1763Z"/><path class="cls-24" d="M1723.6,1761.19a1.68,1.68,0,0,1-.14,1.31,4.45,4.45,0,0,0,1.09-2.29c-1.51-1.62-5.59-2.57-6.23-2.68C1718.85,1757.78,1723.29,1759.86,1723.6,1761.19Z"/><path class="cls-23" d="M1667.67,1729.16a11.51,11.51,0,0,0,5.35,3.45c8,2.39,17.53-3.45,17.53-3.45l.56-23.45-17.28.57-4.79.17Z"/><path class="cls-28" d="M1665.27,1741c-.49,5.52,35.45,25.62,39.71,25.62h2.85c-.35-.7-1.37-1.16-3.34-1.12-7.53.21-32.07-23.59-33.76-26.58-1.09-2,.81-4.58,2.29-6.3a9.92,9.92,0,0,0,1.48-1.83c0-.14.17-1.59.42-3.63.7-5.84,2-16.68,2-17.11l-3.13-3.76-4.79.17-1.37,22.71A70.46,70.46,0,0,0,1665.27,1741Z"/><path class="cls-25" d="M1663.6,1746.11c1.36,3.78,31.73,21,44,22.66,2.72.35,8-.3,12.69-1.86a31.24,31.24,0,0,0,5.49-2.32c3.18-1.91,5.14-4.33,3.93-7.15-3.12-7.3-35.5-23.56-37.87-24.77a.39.39,0,0,0-.15-.05s4.58-9.67.81-14c0,0-12.59.5-20.45.85-2.82.11-5,.56-5.74,1.57C1663.6,1724.81,1662.29,1742.34,1663.6,1746.11Z"/><path class="cls-26" d="M1663.6,1746.11c1.36,3.78,31.73,21,44,22.66,2.72.35,8-.3,12.69-1.86-19.33-.6-51.66-15.46-54.53-23.47-2.57-7.2,4.33-20.49,6.29-24-2.82.11-5,.56-5.74,1.57C1663.6,1724.81,1662.29,1742.34,1663.6,1746.11Z"/><path class="cls-26" d="M1725.79,1764.59c3.18-1.91,5.14-4.33,3.93-7.15-3.12-7.3-35.5-23.56-37.87-24.77a.39.39,0,0,0-.15-.05s-17.12-3.28-21,6.29C1667.38,1747.27,1705.25,1765.7,1725.79,1764.59Z"/><path class="cls-42" d="M1721.36,1262.85l-7,272.58-21.12,178a44.63,44.63,0,0,1-28.31.31l2.15-182.38-24.92-139.23-.25-1.26-21.12-128h100.61Z"/><polygon class="cls-43" points="1664.89 1713.76 1667.04 1531.38 1641.86 1390.84 1642.11 1384.01 1687.21 1533.39 1664.89 1713.76"/><path class="cls-43" d="M1551.9,1261.52s-1,248.7,45.79,254,54.82-254,54.82-254Z"/><path class="cls-44" d="M1566.72,1068.83s-20.93,64-37.14,65.39c-11.83,1-29.9,3-29.9-16.76s34.18-68.35,34.18-68.35Z"/><path class="cls-33" d="M1575.46,1099.5c14.6-23.66,29.62-48.4,37.1-62,33.71-61.17,23.57-87.39,23.57-87.39-63.54,1.87-101.93,54.08-109.77,87,0,0-10.86,20.42-8.3,27C1526.2,1085.11,1556.68,1087.18,1575.46,1099.5Z"/><path class="cls-33" d="M1748.71,1074.13v.06c-6,12-19.26,16.56-33.24,20.55-9.39,2.7-19.08,5.15-27.11,9.38-12.39-24.9-25.09-50.91-31.29-65.08-28.09-64-15.58-89.18-15.58-89.18,63.12,7.6,96.61,63.11,101.46,96.6C1743,1046.46,1751.9,1067.81,1748.71,1074.13Z"/><path class="cls-34" d="M1640.94,949.66s58.76,2.17,66.37,97.92,37,207.83,14.15,225.24-149.07,17.41-171.92-2.18,8.7-194.77,17.41-231.76S1583.27,951.83,1640.94,949.66Z"/><path class="cls-33" d="M1607.43,973.7c0,9.24,12.86,16.74,28.73,16.74s28.72-7.5,28.72-16.74S1652,957,1636.16,957,1607.43,964.46,1607.43,973.7Z"/><path class="cls-23" d="M1499.84,986.85c1.29.13,30.13,0,30.13,0s19.87,108.84,15.72,134.55c-2.44,15.07-33.9,24.54-44,6.58C1492.59,1111.94,1499,986.78,1499.84,986.85Z"/><path class="cls-23" d="M1496.14,978c2,5.28,3.68,8.83,3.68,8.83h30.12s-.92-4.72,2-11.77a45.28,45.28,0,0,1,2.39-4.79c5.71-9.69,15.34-22.39,8.35-21.46a22.24,22.24,0,0,0-11.41,4.78s3.49-27.6-9.63-48.64-30.24,24.53-32,40.79C1488.54,955.8,1492.77,969.29,1496.14,978Z"/><path class="cls-45" d="M1496.14,978c4.48,2.33,9.75,2.88,15.4,4.73,11.77,3.92,19.69-7.24,19.69-7.24a2.85,2.85,0,0,0,.67-.43,45.28,45.28,0,0,1,2.39-4.79c5.71-9.69,15.34-22.39,8.35-21.46a22.24,22.24,0,0,0-11.41,4.78s3.49-27.6-9.63-48.64-30.24,24.53-32,40.79C1488.54,955.8,1492.77,969.29,1496.14,978Z"/><path class="cls-23" d="M1682.46,873.4s13.84-10.68,20.18,1.69-8.29,30.9-20.24,29.7Z"/><path class="cls-37" d="M1682.45,880.41c3.14-1.66,8.82-3.48,11.93,2.58,4.06,8-4.13,19.46-12,20.8Z"/><path class="cls-23" d="M1592.22,873.4s-13.84-10.68-20.18,1.69,8.29,30.9,20.24,29.7Z"/><path class="cls-37" d="M1592.27,903.79c-7.83-1.34-16-12.85-12-20.8,3.11-6.06,8.8-4.24,11.94-2.58Z"/><path class="cls-15" d="M1687.08,816.88c9.58,12.25,13.77,38.19-.65,61.88s-98.34,7.72-98.34,7.72-31.92-55.61,2.06-70.54c0,0,8.64-21.75,46.57-21.75C1667.16,794.19,1675.3,801.81,1687.08,816.88Z"/><path class="cls-23" d="M1656.4,974s-7.54,11.34-20.59,11.34-22.32-11-22.32-11,.5-11.68.91-21.48c.24-6.51.46-12.21.46-13.17h41.2l.17,16.82Z"/><path class="cls-37" d="M1656.23,956.51c-6.48,5.41-13.5,8.92-18.91,8.92-6.56,0-15.45-5.15-22.92-12.57.24-6.51.46-12.21.46-13.17h41.2Z"/><path class="cls-23" d="M1680.35,927.68c-10.23,13.33-30.06,28.82-43,28.82s-32.8-15.49-43.08-28.82-3-88.58-3-88.58a8.77,8.77,0,0,1,2.33-4.7c13.48-15.13,79.9-14.51,89,1.91a8.66,8.66,0,0,1,.93,2.79S1690.68,914.3,1680.35,927.68Z"/><path class="cls-15" d="M1682.52,834.47a142.5,142.5,0,0,1-41.58,5.83c-17.77,0-34.19-2.89-47.41-7.74C1607,817.42,1673.43,818,1682.52,834.47Z"/><path class="cls-21" d="M1574.29,1226.14a56.92,56.92,0,0,0-43.44,31.14l-14.08-104.46,80.89-10.91c-.35-1.56-.64-3.17-.86-4.81a57,57,0,1,1,113-15.23c.22,1.64.37,3.27.45,4.87l84.14-11.35,28.58,212a66.23,66.23,0,0,1-56.78,74.49l-212,28.58-14.81-109.83a57,57,0,1,0,34.91-94.45Z"/><path class="cls-23" d="M1669.64,1266.5l-2.46-3.53,0-.11-14.84-21.69,68.51-105.31s-2.85-6.29-6-20.86c0,0-1.71-19.26-2.3-19.58,1.18,0,23.82-4.9,34.53-19.25,8.42,9.18,15.23,35.27,17.32,47.59.54,3.42,1,6.37,1.56,8.83C1770.88,1156.11,1669.64,1266.5,1669.64,1266.5Z"/><path class="cls-23" d="M1626.41,1251.52l-.22.27c-2,3-4.67,13.28-4.67,13.28s-11.29,10.88-7.65,17.45c.33.62.82,1.45,1.26,2.33.79,1.3,1.66,2.71,2.72,4.23l0,.05a42.76,42.76,0,0,0,3.69,4.78,23.68,23.68,0,0,0,3,3,28.17,28.17,0,0,0,2.8,2.15,16.08,16.08,0,0,0,3.67,2l0,0a20.31,20.31,0,0,0,3.79,1l.05,0a13.25,13.25,0,0,0,5.43-.25l.06-.05a9.23,9.23,0,0,0,1.71-.5,24,24,0,0,0,3.38-1.59c15.36-9,29.77-28.2,29-38.66a7.62,7.62,0,0,0-.54-2.29,8,8,0,0,0-.83-1.79c-2.58-4.61-8-8.65-12.71-11.48a80.46,80.46,0,0,0-7.88-4.2S1629.59,1248.16,1626.41,1251.52Z"/><path class="cls-24" d="M1615.32,1284.33a2.86,2.86,0,0,0-.16.53c.77,1.26,1.64,2.7,2.69,4.25l0,0c3.95-.91,13-7.6,13.48-8.72C1631.36,1280.42,1619.26,1287.64,1615.32,1284.33Z"/><path class="cls-24" d="M1621.57,1293.91a28.74,28.74,0,0,0,3,3.06c3.06-1.77,8.6-8.3,8.85-9.37C1632.84,1288.15,1625.39,1295.18,1621.57,1293.91Z"/><path class="cls-24" d="M1627.34,1299.13a20.38,20.38,0,0,0,3.72,2c3.14-2.46,7.35-7.49,7.56-8.47C1638.08,1293.21,1631.26,1299.63,1627.34,1299.13Z"/><path class="cls-24" d="M1634.92,1302.17a14.82,14.82,0,0,0,5.43-.28l0,0c2.49-2.49,4.84-5.41,5-6.15C1644.83,1296.21,1638.91,1301.83,1634.92,1302.17Z"/><path class="cls-24" d="M1621.51,1265.11l15.4-11.8s-5.93.93-7.32,2.27S1621.51,1265.11,1621.51,1265.11Z"/><path class="cls-41" d="M1669.64,1266.5l-2.46-3.53,0-.11c5.3-7.07,84-113.88,90.14-126.62,2.79-5.79,5-10.34,7.07-12.48.54,3.42,1,6.37,1.56,8.83C1770.88,1156.11,1669.64,1266.5,1669.64,1266.5Z"/><path class="cls-46" d="M922,262.6v71.5a36.61,36.61,0,0,1-36.63,36.56H813.27l.19-27.81a89.19,89.19,0,0,1,89.68-88.74l17.81.06A34.08,34.08,0,0,1,922,262.6Z"/><g class="cls-47"><path class="cls-48" d="M1534.2,819.23V932.42a83.1,83.1,0,0,1-77.66,52.34l-10.26-.06-562.95-695a82.71,82.71,0,0,1,39.27-9.62l16.59.06,158.61.41Z"/><path class="cls-49" d="M1420.31,984.53l-78.07-.53L839.07,363v-.24a82.89,82.89,0,0,1,27.67-61.49Z"/></g><path class="cls-8" d="M794.1,352.71a36.63,36.63,0,0,1-36.59-36.59V244.65a36.63,36.63,0,0,1,36.59-36.59h71.48a36.62,36.62,0,0,1,36.58,36.59v71.47a36.63,36.63,0,0,1-36.58,36.59Z"/><path class="cls-16" d="M893.53,244.65v71.47a28,28,0,0,1-27.95,28H794.1a28,28,0,0,1-28-28V244.65a28,28,0,0,1,28-28h71.48A28,28,0,0,1,893.53,244.65Z"/><path class="cls-17" d="M862.43,336.09a65.81,65.81,0,0,1-.48,8H794.1a28,28,0,0,1-28-28V279.35a64.86,64.86,0,0,1,96.29,56.74Z"/><path class="cls-18" d="M893.53,274.52v41.6a28,28,0,0,1-27.95,28H828.43a51.58,51.58,0,0,1,65.1-69.56Z"/><path class="cls-17" d="M855.34,249a12.75,12.75,0,1,1-12.75-12.75A12.75,12.75,0,0,1,855.34,249Z"/><g class="cls-6"><path class="cls-7" d="M397.24,937.89l94.85-.64a15.64,15.64,0,0,1,15.69,15.48l.63,94.85a15.63,15.63,0,0,1-15.48,15.69l-94.85.63a15.62,15.62,0,0,1-15.68-15.48l-.64-94.84A15.62,15.62,0,0,1,397.24,937.89Z"/></g><path class="cls-8" d="M382.8,921.53l94.84-.63a15.64,15.64,0,0,1,15.69,15.48l.63,94.85a15.63,15.63,0,0,1-15.48,15.69l-94.84.63A15.63,15.63,0,0,1,368,1032.07l-.63-94.85A15.63,15.63,0,0,1,382.8,921.53Z"/><path class="cls-50" d="M437.77,1006.1a1.35,1.35,0,0,1-1.27-.9l-1.87-5.3a27.12,27.12,0,0,1-7.37-3l-5,2.51a1.32,1.32,0,0,1-1.54-.25l-5.21-5.12a1.33,1.33,0,0,1-.27-1.53l2.43-5.09a27.44,27.44,0,0,1-3.11-7.31l-5.33-1.79a1.36,1.36,0,0,1-.92-1.26l-.06-7.31a1.36,1.36,0,0,1,.9-1.28l5.3-1.88a27.48,27.48,0,0,1,3-7.36l-2.5-5a1.34,1.34,0,0,1,.24-1.54l5.13-5.21a1.33,1.33,0,0,1,1.53-.27l5.09,2.42a27.41,27.41,0,0,1,7.31-3.1l1.79-5.33a1.34,1.34,0,0,1,1.26-.92l7.31-.06h0a1.35,1.35,0,0,1,1.27.9l1.87,5.3a27.42,27.42,0,0,1,7.37,3l5-2.5a1.34,1.34,0,0,1,1.54.24l5.21,5.13a1.33,1.33,0,0,1,.27,1.53l-2.43,5.08a27.64,27.64,0,0,1,3.11,7.32l5.33,1.79a1.36,1.36,0,0,1,.92,1.26l.06,7.31a1.37,1.37,0,0,1-.9,1.28l-5.3,1.87a27.42,27.42,0,0,1-3,7.37l2.5,5a1.34,1.34,0,0,1-.24,1.54l-5.13,5.21a1.34,1.34,0,0,1-1.53.27l-5.09-2.43a27.44,27.44,0,0,1-7.31,3.11l-1.79,5.33a1.36,1.36,0,0,1-1.26.92l-7.31.06ZM427.34,995l.4.24a25.74,25.74,0,0,0,7.71,3.13l.46.1,2.1,5.95,6.82-.06,2-6,.45-.11A25.64,25.64,0,0,0,455,995l.39-.25,5.7,2.72,4.78-4.86L463,987l.24-.4a25.74,25.74,0,0,0,3.13-7.71l.1-.46,5.95-2.1-.06-6.82-6-2-.11-.45a25.64,25.64,0,0,0-3.25-7.66l-.25-.4,2.72-5.69-4.86-4.78L455,951.3l-.4-.24a25.74,25.74,0,0,0-7.71-3.13l-.46-.1-2.1-6-6.82.06-2,6L435,948a25.64,25.64,0,0,0-7.66,3.25l-.4.25-5.69-2.72-4.78,4.86,2.81,5.65-.24.4a25.74,25.74,0,0,0-3.13,7.71l-.1.46-6,2.1.06,6.82,6,2,.11.45a25.64,25.64,0,0,0,3.25,7.66l.25.39-2.72,5.7,4.86,4.78Zm7.5-47.78h0Zm6.22,44.53a18.48,18.48,0,0,1-.15-37,19,19,0,0,1,3.92.38.85.85,0,0,1-.34,1.66,16.35,16.35,0,0,0-3.56-.35,16.78,16.78,0,1,0,14.47,8,.84.84,0,0,1,.28-1.16.83.83,0,0,1,1.16.28,18.48,18.48,0,0,1-15.62,28.09Z"/><path class="cls-50" d="M441.15,980.48a7.33,7.33,0,0,1-1.84-14.43h0A7.33,7.33,0,0,1,443,980.24,7.5,7.5,0,0,1,441.15,980.48Zm-1.41-12.8a5.64,5.64,0,1,0,6.89,4,5.66,5.66,0,0,0-6.89-4Z"/><path class="cls-50" d="M409.28,1033.53a.85.85,0,0,1-.7-.35L407,1031.1a13.35,13.35,0,0,1-3.62-.33l-1.89,1.77a.85.85,0,0,1-1,.14l-3.11-1.63a.86.86,0,0,1-.46-.9l.39-2.56a13.1,13.1,0,0,1-2.34-2.8l-2.58-.07a.87.87,0,0,1-.81-.61l-1.05-3.36a.87.87,0,0,1,.32-1l2.08-1.53a13.42,13.42,0,0,1,.32-3.63l-1.77-1.88a.9.9,0,0,1-.14-1l1.63-3.11a.88.88,0,0,1,.91-.46l2.55.39a13.6,13.6,0,0,1,2.8-2.34l.07-2.58a.89.89,0,0,1,.62-.81l3.35-1.05a.87.87,0,0,1,1,.32l1.54,2.08a13.07,13.07,0,0,1,3.63.33l1.88-1.78a.88.88,0,0,1,1-.14l3.11,1.64a.86.86,0,0,1,.46.9l-.38,2.56a13.55,13.55,0,0,1,2.33,2.79l2.58.08a.86.86,0,0,1,.81.61l1,3.35a.88.88,0,0,1-.32,1l-2.08,1.53a13.42,13.42,0,0,1-.32,3.63l1.77,1.88a.86.86,0,0,1,.14,1l-1.63,3.12a.9.9,0,0,1-.91.46l-2.55-.39a13.3,13.3,0,0,1-2.8,2.33l-.07,2.59a.87.87,0,0,1-.61.8l-3.36,1A.78.78,0,0,1,409.28,1033.53Zm-1.63-3.74,1.78,2.41,2.82-.88.09-3,.3-.17a12.13,12.13,0,0,0,3-2.52l.23-.27,3,.45,1.37-2.61-2.06-2.19.09-.34a12,12,0,0,0,.35-3.91l0-.35,2.41-1.78-.88-2.82-3-.08-.18-.3a12,12,0,0,0-2.52-3l-.26-.23.45-3-2.62-1.37-2.18,2-.34-.08a12.29,12.29,0,0,0-3.91-.36l-.35,0-1.78-2.41-2.82.88-.09,3-.3.18a12.13,12.13,0,0,0-3,2.52l-.23.26-3-.45-1.37,2.62,2.06,2.18-.09.34a12,12,0,0,0-.35,3.92l0,.34-2.42,1.78.88,2.82,3,.09.18.3a12.18,12.18,0,0,0,2.52,3l.26.22-.45,3,2.62,1.37,2.18-2.06.34.09a12,12,0,0,0,3.91.35ZM400,1003.66Zm6.42,23.16a9.11,9.11,0,0,1-2.72-17.81,9.55,9.55,0,0,1,1.9-.38.63.63,0,1,1,.11,1.26,7.61,7.61,0,0,0-1.63.33,7.84,7.84,0,1,0,7.56,1.63.63.63,0,1,1,.84-.94,9,9,0,0,1,2.63,4.08,9.11,9.11,0,0,1-6,11.41A8.8,8.8,0,0,1,406.4,1026.82Z"/></g></g></g></svg>