<svg xmlns="http://www.w3.org/2000/svg" viewBox="0 0 1668 1737.23"><defs><style>.cls-1{fill:#9d93ac;}.cls-2{fill:#ffac73;}.cls-3{fill:#fccaa7;}.cls-4{fill:#fff;}.cls-5{fill:#ce7c32;}.cls-6{fill:#e29952;}.cls-7{fill:#4e3654;}.cls-8{fill:#422f47;}.cls-9{fill:#d35f8d;}.cls-10{fill:#f9ed32;}.cls-11{fill:#9baf4e;}.cls-12{fill:#bcd35f;}.cls-13{fill:#5c4263;}.cls-14{fill:#4d3954;}.cls-15{fill:#e98db4;}</style></defs><g id="katman_2" data-name="katman 2"><g id="Layer_1" data-name="Layer 1"><path class="cls-1" d="M0,0H1024.38A464.88,464.88,0,0,1,1248,114a315.14,315.14,0,0,1,80,104c27.81,58.39,29.75,109.39,30,123,.51,27.15.94,50.4-10,78-20.74,52.33-71.94,93.94-72,94a2.61,2.61,0,0,1,.17-.2c.49-.54,83.68-171.19,81.83-171.8-1-.32-12.08,51.17-52.89,124.41-14.4,25.85-21.8,32.92-28.88,47.51-17.55,36.13-26.72,84.28-31.17,183.18-10.09,224-230,595.22-659.61,726.37,0,0-82,308.7-563.45,314.76Q11,868.61,0,0Z"/><rect class="cls-2" x="482.78" y="789.76" width="195.61" height="195.61"/><rect class="cls-3" x="545.59" y="789.81" width="195.61" height="195.61"/><rect class="cls-4" x="563.87" y="958.64" width="34.98" height="11.03"/><rect class="cls-5" x="633.49" y="789.81" width="28.93" height="161.62"/><rect class="cls-5" x="633.42" y="944.09" width="28.93" height="41.33"/><rect class="cls-2" x="618.03" y="597.01" width="195.61" height="195.61"/><rect class="cls-3" x="680.85" y="597.06" width="195.61" height="195.61"/><rect class="cls-4" x="699.12" y="765.89" width="34.98" height="11.03"/><rect class="cls-5" x="768.74" y="597.06" width="28.93" height="161.62"/><rect class="cls-5" x="768.67" y="751.34" width="28.93" height="41.33"/><rect class="cls-2" x="807.32" y="780.63" width="204.76" height="204.76"/><rect class="cls-3" x="873.07" y="780.68" width="204.76" height="204.76"/><rect class="cls-4" x="892.2" y="957.41" width="36.61" height="11.54"/><rect class="cls-5" x="965.08" y="780.68" width="30.28" height="169.18"/><rect class="cls-5" x="965.01" y="942.18" width="30.28" height="43.26"/><rect class="cls-2" x="245.91" y="789.76" width="195.61" height="195.61"/><rect class="cls-3" x="308.72" y="789.81" width="195.61" height="195.61"/><rect class="cls-4" x="327" y="958.64" width="34.98" height="11.03"/><rect class="cls-5" x="396.62" y="789.81" width="28.93" height="161.62"/><rect class="cls-5" x="396.55" y="944.09" width="28.93" height="41.33"/><rect class="cls-2" x="322.25" y="597.01" width="195.61" height="195.61"/><rect class="cls-3" x="385.07" y="597.06" width="195.61" height="195.61"/><rect class="cls-4" x="403.34" y="765.89" width="34.98" height="11.03"/><rect class="cls-5" x="472.97" y="597.06" width="28.93" height="161.62"/><rect class="cls-5" x="472.9" y="751.34" width="28.93" height="41.33"/><rect class="cls-2" x="457.2" y="402.8" width="195.61" height="195.61"/><rect class="cls-3" x="520.02" y="402.85" width="195.61" height="195.61"/><rect class="cls-4" x="538.29" y="571.68" width="34.98" height="11.03"/><rect class="cls-5" x="607.91" y="402.85" width="28.93" height="161.62"/><rect class="cls-5" x="607.85" y="557.13" width="28.93" height="41.33"/><rect class="cls-2" x="1142.15" y="860.42" width="60.36" height="60.36"/><rect class="cls-3" x="1161.54" y="860.44" width="60.36" height="60.36"/><rect class="cls-4" x="1167.18" y="912.54" width="10.79" height="3.4"/><rect class="cls-5" x="1188.66" y="860.44" width="8.93" height="49.87"/><rect class="cls-5" x="1188.64" y="908.05" width="8.93" height="12.75"/><rect class="cls-6" x="1235.4" y="918.98" width="9.47" height="20.26" transform="translate(2480.27 1858.22) rotate(180)"/><rect class="cls-7" x="1020.72" y="949.27" width="83.67" height="20.55" transform="translate(2125.11 1919.09) rotate(180)"/><rect class="cls-7" x="1013.08" y="717.01" width="19.46" height="252.8" transform="translate(2045.62 1686.83) rotate(180)"/><polygon class="cls-8" points="1053.45 942.14 701.09 942.14 718.41 901.92 761.54 878.64 822.3 889.03 848.28 929.42 894.98 937.09 929.44 929.42 961.46 893.03 994.74 882.27 1039.73 889.55 1050.22 910.39 1053.45 942.14"/><path class="cls-7" d="M771.64,866h12.12V753.74a11.21,11.21,0,0,1,11.2-11.2h90.28a11.19,11.19,0,0,1,9.81,5.8l66.41,120.53L972.08,863l-66.4-120.52a23.33,23.33,0,0,0-20.44-12.1H795a23.35,23.35,0,0,0-23.32,23.33Z"/><polygon class="cls-7" points="961.46 856.64 916.04 856.64 897.42 891.76 897.42 929.42 946.22 929.42 961.46 856.64"/><polygon class="cls-7" points="846.49 868.39 846.49 907.18 837.57 898.26 837.57 866.22 846.49 868.39"/><rect class="cls-9" x="810.38" y="852.41" width="60.02" height="15.98" transform="translate(1680.79 1720.8) rotate(180)"/><path class="cls-10" d="M683.77,887.62V947.2h33.7a54.17,54.17,0,1,1,108.34,0h117a54.17,54.17,0,0,1,108.34,0h4.19A10.19,10.19,0,0,0,1065.55,937V894.36a23.44,23.44,0,0,0-9.07-18.52l-24.78-19.2H972.46c-39.94,6.4-52.57,38.4-56.55,57.78a18.83,18.83,0,0,1-18.42,15H885.36a18.62,18.62,0,0,1-17.75-12.64c-16.68-50.38-71.29-58-71.29-58H727.68a9,9,0,0,0-6.35,2.65l-1.92,1.94a8.86,8.86,0,0,0-2.64,6.33,9,9,0,0,1-9,9H692.74A9,9,0,0,0,683.77,887.62Z"/><path class="cls-11" d="M1050.22,937.09a53.33,53.33,0,0,1,1,10.11h4.19a10.19,10.19,0,0,0,10.19-10.11Z"/><path class="cls-11" d="M824.86,937.09a53.33,53.33,0,0,1,.95,10.11h117a53.33,53.33,0,0,1,.95-10.11Z"/><path class="cls-11" d="M683.77,937.09V947.2h33.7a52.52,52.52,0,0,1,.95-10.11Z"/><rect class="cls-9" x="1032.54" y="724.63" width="14.39" height="46.54" transform="translate(2079.47 1495.8) rotate(180)"/><path class="cls-12" d="M683.77,887.62v49.47h34.65a54.17,54.17,0,0,1,106.44,0H943.78a54.17,54.17,0,0,1,106.44,0h15.33V894.36a23.44,23.44,0,0,0-9.07-18.52l-24.78-19.2H972.46c-39.94,6.4-52.57,38.4-56.55,57.78a18.83,18.83,0,0,1-18.42,15H885.36a18.62,18.62,0,0,1-17.75-12.64c-16.68-50.38-71.29-58-71.29-58H727.68a9,9,0,0,0-6.35,2.65l-1.92,1.94a8.86,8.86,0,0,0-2.64,6.33,9,9,0,0,1-9,9H692.74A9,9,0,0,0,683.77,887.62Z"/><circle class="cls-13" cx="997" cy="947.19" r="38.3"/><path class="cls-14" d="M982,947.19a15,15,0,1,0,15-15A15,15,0,0,0,982,947.19Z"/><circle class="cls-12" cx="997" cy="947.19" r="10.1"/><circle class="cls-13" cx="771.64" cy="947.19" r="38.3"/><path class="cls-14" d="M756.65,947.19a15,15,0,1,0,15-15A15,15,0,0,0,756.65,947.19Z"/><path class="cls-12" d="M761.54,947.19a10.1,10.1,0,1,0,10.1-10.1A10.1,10.1,0,0,0,761.54,947.19Z"/><path class="cls-7" d="M922.81,824.77v31.15a3.38,3.38,0,0,1-3.38,3.38h0a3.38,3.38,0,0,1-3.39-3.38V824.77a3.39,3.39,0,0,1,3.39-3.39h0A3.38,3.38,0,0,1,922.81,824.77Z"/><path class="cls-7" d="M1080.47,744.94V957.59a12.24,12.24,0,0,0,12.23,12.23h198.92v-20.3H1100.36V744.94a9.94,9.94,0,0,0-9.94-9.94h0A10,10,0,0,0,1080.47,744.94Z"/><rect class="cls-6" x="1182.03" y="923.73" width="8.04" height="17.19" transform="translate(2372.09 1864.65) rotate(180)"/><rect class="cls-6" x="1100.37" y="923.73" width="8.04" height="17.19" transform="translate(2208.77 1864.65) rotate(180)"/><rect class="cls-6" x="1100.37" y="940.92" width="188.06" height="8.35" transform="translate(2388.79 1890.19) rotate(180)"/><rect class="cls-6" x="1100.37" y="920.01" width="188.06" height="8.35" transform="translate(2388.79 1848.37) rotate(180)"/><rect class="cls-9" x="1046.93" y="887.43" width="18.62" height="12.88" transform="translate(2112.47 1787.74) rotate(180)"/><rect class="cls-9" x="682.47" y="887.43" width="18.62" height="12.88" transform="translate(1383.56 1787.74) rotate(180)"/><path class="cls-12" d="M288.66,232.51A15.5,15.5,0,1,1,273,217.14,15.49,15.49,0,0,1,288.66,232.51Z"/><path class="cls-12" d="M671.41,273.94a15.5,15.5,0,1,1-15.64-15.37A15.49,15.49,0,0,1,671.41,273.94Z"/><path class="cls-12" d="M656.23,130.71a7.85,7.85,0,1,1-7.91-7.77A7.84,7.84,0,0,1,656.23,130.71Z"/><path class="cls-12" d="M206.9,563.77A7.84,7.84,0,1,1,199,556,7.84,7.84,0,0,1,206.9,563.77Z"/><path class="cls-12" d="M386.76,481.12a7.85,7.85,0,1,1-7.92-7.77A7.86,7.86,0,0,1,386.76,481.12Z"/><path class="cls-12" d="M1120.75,310.51a7.84,7.84,0,1,1-7.91-7.77A7.84,7.84,0,0,1,1120.75,310.51Z"/><path class="cls-12" d="M896.25,527.39a7.84,7.84,0,1,1-7.91-7.77A7.84,7.84,0,0,1,896.25,527.39Z"/><circle class="cls-12" cx="988.86" cy="412.7" r="29"/><circle class="cls-12" cx="963.14" cy="379.82" r="16.6"/><rect class="cls-2" x="820.1" y="119.37" width="49.25" height="49.25" transform="translate(-8.46 64.21) rotate(-4.33)"/><rect class="cls-3" x="835.87" y="118.18" width="49.25" height="49.25" transform="matrix(1, -0.08, 0.08, 1, -8.33, 65.4)"/><rect class="cls-5" x="857.67" y="118.1" width="7.28" height="40.69" transform="translate(-8 65.49) rotate(-4.33)"/><rect class="cls-5" x="859.46" y="156.88" width="7.28" height="10.4" transform="matrix(1, -0.08, 0.08, 1, -9.75, 65.43)"/><rect class="cls-7" x="810.61" y="72.33" width="1.05" height="50.03" transform="translate(6.21 237) rotate(-16.69)"/><rect class="cls-7" x="831.43" y="63.69" width="1.05" height="56.5" transform="translate(-4.57 63.26) rotate(-4.34)"/><rect class="cls-7" x="846.91" y="89.47" width="56.35" height="1.05" transform="translate(752.57 961.13) rotate(-87.87)"/><rect class="cls-7" x="860.97" y="91.11" width="49.79" height="1.05" transform="translate(699.84 962.59) rotate(-83.85)"/><path class="cls-9" d="M830.45,70.61a13.26,13.26,0,0,0-26.11,3.88l-1.05.08c0-.21,0-.42,0-.64a43.45,43.45,0,0,1,32.53-45.37C825.72,47.51,829.77,67.65,830.45,70.61Z"/><path class="cls-9" d="M889.88,67.36c0,.22,0,.43,0,.64l-1.49.12c-1.1-4.5-3.92-7.65-7-7.42-2.78.22-4.94,3.2-5.59,7.25-1.52-15.33-7.81-29.66-15.25-38.42A43.47,43.47,0,0,1,889.88,67.36Z"/><path class="cls-15" d="M875.87,68c-.06.36-.11.75-.15,1.13h0A22.83,22.83,0,0,0,830.54,71l-.09-.37c-.68-3-4.73-23.1,5.32-42a43.7,43.7,0,0,1,24.85,1C868.06,38.29,874.35,52.62,875.87,68Z"/><rect class="cls-2" x="367.01" y="218.74" width="83.88" height="83.88" transform="translate(-19.62 33.7) rotate(-4.61)"/><rect class="cls-3" x="393.86" y="216.58" width="83.88" height="83.88" transform="translate(-19.36 35.84) rotate(-4.61)"/><rect class="cls-5" x="430.96" y="216.44" width="12.41" height="69.31" transform="matrix(1, -0.08, 0.08, 1, -18.78, 35.97)"/><rect class="cls-5" x="434.2" y="282.48" width="12.41" height="17.72" transform="translate(-21.96 36.28) rotate(-4.6)"/><rect class="cls-4" x="350.45" y="138.88" width="1.79" height="85.22" transform="translate(-37.66 110.4) rotate(-16.96)"/><rect class="cls-4" x="385.87" y="123.99" width="1.79" height="96.24" transform="translate(-12.54 31.51) rotate(-4.59)"/><rect class="cls-4" x="412.23" y="167.56" width="95.99" height="1.79" transform="translate(277.26 623.11) rotate(-88.18)"/><rect class="cls-4" x="436.2" y="170.27" width="84.81" height="1.79" transform="translate(259.6 629.85) rotate(-84.16)"/><path class="cls-9" d="M384,135.79a22.59,22.59,0,0,0-44.45,6.83l-1.78.14c0-.35-.07-.71-.1-1.08a74,74,0,0,1,55-77.54C375.79,96.49,382.85,130.77,384,135.79Z"/><path class="cls-9" d="M485.24,129.78c0,.38.05.73.06,1.09l-2.55.22c-1.91-7.66-6.74-13-11.91-12.59-4.74.39-8.39,5.49-9.47,12.4-2.71-26.1-13.54-50.45-26.28-65.32A74.06,74.06,0,0,1,485.24,129.78Z"/><path class="cls-15" d="M461.37,130.9c-.1.62-.18,1.27-.24,1.92l-.07,0a38.89,38.89,0,0,0-76.87,3.59l-.15-.64c-1.19-5-8.25-39.3,8.7-71.65a74.2,74.2,0,0,1,42.35,1.44C447.83,80.45,458.66,104.8,461.37,130.9Z"/><path class="cls-1" d="M1668,163,0,0"/></g></g></svg>