<svg xmlns="http://www.w3.org/2000/svg" xmlns:xlink="http://www.w3.org/1999/xlink" viewBox="0 0 2005.14 1150.17"><defs><style>.cls-1{fill:#9d93ac;}.cls-2{fill:#bcd35f;}.cls-3{fill:#b0bf56;}.cls-4{fill:url(#linear-gradient);}.cls-5{fill:#fcb72b;}.cls-6{fill:#fcd183;}.cls-7{fill:#dd9624;}.cls-8{fill:#a36f40;}.cls-9{fill:#ffac73;}.cls-10{fill:#fccaa7;}.cls-11{fill:#fff;}.cls-12{fill:#ce7c32;}.cls-13{fill:#7c7489;}.cls-14{fill:#87decd;}.cls-15{fill:#4e3654;}.cls-16{fill:#d35f8d;}.cls-17{fill:#eaa2bf;}</style><linearGradient id="linear-gradient" y1="1144.18" x2="2005.14" y2="1144.18" gradientUnits="userSpaceOnUse"><stop offset="0" stop-color="#9d93ac"/><stop offset="1" stop-color="#ad37ff"/></linearGradient></defs><g id="katman_2" data-name="katman 2"><g id="Layer_1" data-name="Layer 1"><g id="prising"><path class="cls-1" d="M1294,76.46a597,597,0,0,1,158.33,6.48c126.86,22.54,270.89,68.47,360.62,174.82,128.7,152.49,140.65,279.17,1,386.59-139.83,107.19,176.25,261.76-63.53,456.9-17.78,14.51-39,27.37-63.35,38.92l-.17,0H295.73l-.17,0c-24.37-11.55-45.57-24.41-63.36-38.92-239.78-195.14,76.3-349.71-63.52-456.9C29,536.93,40.92,410.25,169.63,257.76,281.18,125.56,380.07,99.51,522.14,82.91c143.75-16.74,246-1.6,325.23,15.92,11.64.77,30.37,6.15,51.94,13.37,91.59,30.64,190.74,30.18,282.63.48Z"/><path class="cls-1" d="M1779.43,1140.21H1563.22a5.71,5.71,0,0,1,1.24-.57Z"/><path class="cls-1" d="M238.43,1139.64a5.71,5.71,0,0,1,1.24.57H23.47Z"/><path class="cls-1" d="M806.91,133a13,13,0,0,0,1.8,1,9.68,9.68,0,0,1-1.8-.45Z"/><path class="cls-2" d="M564.2,715.05c-51.81-63-18.7-160.46-18.7-160.46s67.94,52.1,57.94,116S564.2,715.05,564.2,715.05Z"/><polygon class="cls-3" points="564.57 638.09 551.79 580.63 556.32 606.03 545.12 594.78 557.32 611.63 566.61 663.8 544.3 638.42 568.5 674.39 575.41 713.2 581.31 713.39 567.25 650.16 572.52 608.91 564.57 638.09"/><path class="cls-2" d="M1468.45,983.27c168.38-50.47,95.53-268.92,173.22-257,0,0-30.82-44.48-122.8-36.92s-184.72,22.44-178.38,163.27C1346,974.24,1422.66,997,1468.45,983.27Z"/><path class="cls-3" d="M1439.7,846.82c64.45-73.72,141.48-124.48,141.48-124.48s-47.43,19.18-106.45,74.31l7.93-58.15-32.58,82.74a595.92,595.92,0,0,0-49.55,60.1l.69-98.6-15.45,120c-8,12.07-15.9,24.8-23.63,38.39l9.4,9.19c12.68-29.55,31.06-57.8,51.69-83.77l115.7-32.23Z"/><path class="cls-2" d="M527.78,850.9C371.66,770.23,354.33,549.21,354.33,549.21s178.77,45.34,213.34,180.4S527.78,850.9,527.78,850.9Z"/><path class="cls-2" d="M1294,798c-28.19-114,75.28-220,75.28-220s55.91,109.82,3.25,186.65S1294,798,1294,798Z"/><polygon class="cls-3" points="1342.23 698.22 1361.29 615.66 1351.4 651.46 1343.84 629.9 1349.22 659.36 1328.93 732.88 1315.69 686.07 1324.81 747.81 1309.71 802.5 1317.26 806.41 1338.23 715.56 1370.66 665.26 1342.23 698.22"/><polygon class="cls-3" points="463.07 698.26 388.92 595.4 419.48 641.83 387.75 629.08 426.22 652.07 488.98 747.43 423.23 716.16 501.72 766.78 548.4 837.7 560.25 833.06 478.65 719.87 454 633.76 463.07 698.26"/><path class="cls-2" d="M1613.71,1136.44l-3.75-.53a530.19,530.19,0,0,1,82.12-215.86l3.16,2.09A526.24,526.24,0,0,0,1613.71,1136.44Z"/><path class="cls-2" d="M1701.17,956.07c-12,.41-22.42-8.3-22.42-8.3a36.49,36.49,0,0,1,6.14-5c3.92-2.47,9.33-4.94,15.33-5s11.52,2.31,15.52,4.63a42.11,42.11,0,0,1,6.51,4.61S1713.16,955.71,1701.17,956.07Z"/><path class="cls-2" d="M1646.61,954.35c2.84,5.45,7.56,9.09,11.57,11.43a38.64,38.64,0,0,0,7.26,3.31,39.35,39.35,0,0,0,1.08-7.91,34.43,34.43,0,0,0-3-16.16c-5.38-11-18.23-15.56-18.23-15.56a42.34,42.34,0,0,0-1.56,8.31C1643.36,942.64,1643.78,948.9,1646.61,954.35Z"/><path class="cls-2" d="M1672.6,925.3c3.29,7.35,11.67,10.54,11.67,10.54s2.79-8.5-.28-15.83-11.36-10.85-11.36-10.85a26.49,26.49,0,0,0-1.3,5.28A20.33,20.33,0,0,0,1672.6,925.3Z"/><path class="cls-2" d="M1693.41,909.07c-4.24,6.94-2.2,15.67-2.2,15.67s8.58-2.44,12.7-9.15,2.56-15.48,2.56-15.48S1697.79,902.22,1693.41,909.07Z"/><path class="cls-2" d="M1686.58,995c-7.34.76-14.34-1.11-19.61-3.29a47.84,47.84,0,0,1-8.66-4.6,39.25,39.25,0,0,1,7.07-6.73c4.49-3.43,10.76-7,18.21-7.57s14.3,1.82,19.41,4.29a52.4,52.4,0,0,1,8.4,5.06,42.38,42.38,0,0,1-7,5.8A38.58,38.58,0,0,1,1686.58,995Z"/><path class="cls-2" d="M1619.69,998.71c4,6.37,10.34,10.32,15.48,12.69a46.73,46.73,0,0,0,9.26,3.21,54.64,54.64,0,0,0,.38-9.82c-.32-5.72-1.56-13-5.39-19.47s-9.85-10.79-14.86-13.47a43.78,43.78,0,0,0-9.07-3.71,52.88,52.88,0,0,0-1,10.47C1614.42,984.64,1615.65,992.36,1619.69,998.71Z"/><path class="cls-2" d="M1666.37,1043c-7.15,1.54-14.41.38-19.86-1.24a47,47,0,0,1-9.08-3.66,46.11,46.11,0,0,1,6.28-7.45c4.1-3.89,10.13-8.05,17.33-9.43s14.45.33,19.77,2.25a52,52,0,0,1,8.87,4.14,50.32,50.32,0,0,1-6.31,6.53A40,40,0,0,1,1666.37,1043Z"/><path class="cls-2" d="M1600.23,1053.72c4.77,5.94,11.36,9.18,16.74,11a47.47,47.47,0,0,0,9.54,2.23,49.06,49.06,0,0,0-.73-9.84c-.82-5.62-2.78-12.76-7.38-18.79s-10.86-9.69-16.13-11.84a44,44,0,0,0-9.41-2.74,43.38,43.38,0,0,0,.06,10.52C1593.62,1040.31,1595.38,1047.77,1600.23,1053.72Z"/><path class="cls-2" d="M1651.88,1090.5c-7,2.24-14.36,1.8-19.94.74a47.07,47.07,0,0,1-9.4-2.74s7.55-15,21.89-19.12c7.08-2.07,14.33-1.14,19.83.25a52,52,0,0,1,9.25,3.25S1665.73,1086,1651.88,1090.5Z"/><path class="cls-2" d="M1587.15,1107.79c5.3,5.42,12.18,8,17.71,9.26a47.62,47.62,0,0,0,9.72,1.26s-.74-16.62-10.87-27.66c-5.14-5.53-11.88-8.59-17.32-10.2a43.9,43.9,0,0,0-9.63-1.78,53.26,53.26,0,0,0,1.16,10.49C1579.09,1095.07,1581.82,1102.37,1587.15,1107.79Z"/><path class="cls-2" d="M510.27,973.9c-120-4.19-109.75-161.21-159-139.84,0,0,12.67-34.74,74.78-45.69s126-17.17,146.21,77C589.67,946.71,542.91,975,510.27,973.9Z"/><path class="cls-3" d="M494.33,863.61l-35.87-49.05,15.32,37.07C425.21,825.41,390.54,821,390.54,821s59.71,20.21,115.08,57.77l-67.75,8.94,82.06,1.26c18.14,13.59,35.18,29.08,48.68,46.41l4.63-7.7A425.78,425.78,0,0,0,494.33,863.61Z"/><polygon class="cls-2" points="571.05 860.06 534.24 723.55 608.52 907.2 571.05 860.06"/><path class="cls-2" d="M331.6,1147.38l-3.88,1.13a1655.63,1655.63,0,0,0-87-231.06l3.66-1.7A1657.84,1657.84,0,0,1,331.6,1147.38Z"/><path class="cls-2" d="M278.56,931.35c-7,11-21.18,14.37-21.18,14.37s-2.76-14.28,4.1-25.34,21-14.68,21-14.68S285.54,920.32,278.56,931.35Z"/><path class="cls-2" d="M241.7,976.58c12.76,2.24,25-5.66,25-5.66s-8.55-11.83-21.34-14-24.86,6-24.86,6S229,974.32,241.7,976.58Z"/><path class="cls-2" d="M234.08,937.65c8.4,1.3,16.27-4.1,16.27-4.1s-5.75-7.63-14.2-8.87-16.24,4.26-16.24,4.26S225.71,936.34,234.08,937.65Z"/><path class="cls-2" d="M231.55,910.29c3.95,7.49,13,10.57,13,10.57s2.67-9.19-1.33-16.76-13.12-10.49-13.12-10.49S227.54,902.83,231.55,910.29Z"/><path class="cls-2" d="M302.51,972.42c-8.94,13.31-26.48,16.9-26.48,16.9s-2.88-17.6,5.86-31S308.07,941,308.07,941,311.45,959.09,302.51,972.42Z"/><path class="cls-2" d="M255.64,1026.56c15.53,3.23,30.82-6,30.82-6s-10-14.85-25.64-17.91-30.7,6.5-30.7,6.5S240.14,1023.32,255.64,1026.56Z"/><path class="cls-2" d="M324.36,1028.49c-9.41,13-27.06,15.94-27.06,15.94s-2.25-17.69,7-30.74,26.78-16.43,26.78-16.43S333.78,1015.48,324.36,1028.49Z"/><path class="cls-2" d="M275.59,1080.92c15.39,3.79,31-4.86,31-4.86s-9.49-15.2-25-18.83-30.92,5.41-30.92,5.41S260.22,1077.13,275.59,1080.92Z"/><path class="cls-2" d="M343.32,1082.6c-9.83,12.64-27.57,15-27.57,15s-1.65-17.77,8-30.49,27.34-15.51,27.34-15.51S353.19,1069.91,343.32,1082.6Z"/><path class="cls-2" d="M292.79,1133.34c15.27,4.31,31.17-3.81,31.17-3.81S315,1114,299.63,1109.88s-31.06,4.34-31.06,4.34S277.59,1129,292.79,1133.34Z"/><rect class="cls-4" y="1138.19" width="2005.14" height="11.98"/><circle class="cls-5" cx="512.67" cy="1027.35" r="110.83" transform="translate(-240.01 160.31) rotate(-14.44)"/><path class="cls-6" d="M597.39,1025.11a84.19,84.19,0,1,1-166.71,23.71c-.22-1.6-.42-3.21-.54-4.83a84.19,84.19,0,0,0,166.43-23.67C596.9,1021.91,597.17,1023.51,597.39,1025.11Z"/><ellipse class="cls-7" cx="513.35" cy="1032.15" rx="84.05" ry="79.33" transform="translate(-140.23 82.58) rotate(-8.1)"/><path class="cls-8" d="M596,1015.48c.29,2,.51,4,.61,6a84.15,84.15,0,0,0-166.21,23.64c-.46-1.94-.82-3.93-1.11-6A84.19,84.19,0,0,1,596,1015.48Z"/><path class="cls-6" d="M515.12,1069.07l-1.44-10.14c-5.85.72-12.13-.23-16-2.24l1.45-7.07a27,27,0,0,0,15.08,2.26c7.13-1,11.37-5.82,10.56-11.55-.79-5.52-5.19-8.38-13.06-10.34-10.82-2.56-17.8-6.28-19-15-1.19-8.34,3.84-15.51,12.87-18.33l-1.45-10.15,6.23-.88,1.38,9.74A27.22,27.22,0,0,1,525.27,997l-1.57,7a24.54,24.54,0,0,0-13.15-1.62c-7.73,1.11-10,6.14-9.42,10.16.75,5.22,4.84,7.3,14.09,9.68,10.95,2.75,16.91,7.23,18.19,16.17,1.13,7.94-3.34,16.15-13.45,19.33l1.49,10.45Z"/><circle class="cls-5" cx="420.49" cy="1089.03" r="52.81" transform="translate(-258.31 139.27) rotate(-14.44)"/><path class="cls-6" d="M460.86,1088a40.12,40.12,0,1,1-79.44,11.3c-.11-.77-.2-1.54-.26-2.31a40.12,40.12,0,0,0,79.3-11.28C460.62,1086.44,460.75,1087.2,460.86,1088Z"/><ellipse class="cls-7" cx="420.81" cy="1091.32" rx="40.05" ry="37.8" transform="translate(-149.49 70.13) rotate(-8.1)"/><path class="cls-8" d="M460.21,1083.38c.13,1,.23,1.92.28,2.87a40.1,40.1,0,0,0-79.2,11.27c-.21-.93-.38-1.87-.52-2.84a40.12,40.12,0,0,1,79.44-11.3Z"/><path class="cls-6" d="M421.65,1108.91l-.68-4.83a14.06,14.06,0,0,1-7.63-1.06l.7-3.37a12.9,12.9,0,0,0,7.18,1.07c3.4-.48,5.42-2.77,5-5.5s-2.47-4-6.22-4.93c-5.15-1.21-8.48-3-9.07-7.15-.57-4,1.83-7.39,6.13-8.74l-.69-4.83,3-.42.66,4.64a12.77,12.77,0,0,1,6.46.79l-.75,3.33a11.64,11.64,0,0,0-6.26-.77c-3.69.52-4.76,2.92-4.49,4.84.35,2.49,2.3,3.48,6.71,4.61,5.22,1.31,8.06,3.44,8.67,7.7.54,3.79-1.59,7.7-6.41,9.22l.71,5Z"/><circle class="cls-5" cx="957.18" cy="690.09" r="34.1" transform="translate(-105.88 1202.27) rotate(-61.51)"/><path class="cls-6" d="M976.74,707.35a25.91,25.91,0,0,1-42.53-29.6c.28-.41.58-.81.89-1.2a25.91,25.91,0,0,0,42.46,29.54C977.3,706.52,977,706.94,976.74,707.35Z"/><ellipse class="cls-7" cx="956.33" cy="691.32" rx="24.41" ry="25.86" transform="translate(-157.35 1081.46) rotate(-55.17)"/><path class="cls-8" d="M978.45,704.89a18.61,18.61,0,0,1-1.13,1.48,25.89,25.89,0,0,0-42.4-29.5c.3-.54.64-1.06,1-1.58a25.91,25.91,0,1,1,42.53,29.6Z"/><path class="cls-6" d="M949,700l1.8-2.59a9.06,9.06,0,0,1-3.14-3.86l1.81-1.29a8.28,8.28,0,0,0,2.93,3.67c1.82,1.27,3.78,1.08,4.79-.39s.59-3-.77-5.06c-1.9-2.85-2.69-5.15-1.14-7.38s4.11-2.69,6.74-1.43l1.8-2.59,1.59,1.11-1.73,2.48a8.31,8.31,0,0,1,2.71,3.22l-1.82,1.24a7.5,7.5,0,0,0-2.62-3.11c-2-1.38-3.54-.72-4.25.31-.93,1.33-.45,2.66,1.14,5.13,1.89,2.92,2.3,5.18.71,7.46a5.44,5.44,0,0,1-7.08,1.54l-1.86,2.66Z"/><circle class="cls-5" cx="1483.58" cy="1091.58" r="47.39" transform="translate(-87.83 130.73) rotate(-4.9)"/><path class="cls-6" d="M1519.46,1096.65a36,36,0,0,1-72-1.82c0-.69,0-1.39.11-2.08a36,36,0,0,0,71.85,1.81C1519.48,1095.26,1519.48,1096,1519.46,1096.65Z"/><ellipse class="cls-7" cx="1483.53" cy="1093.66" rx="33.92" ry="35.94" transform="translate(352.8 2549.13) rotate(-88.55)"/><path class="cls-8" d="M1519.57,1092.49c0,.87-.08,1.74-.18,2.58a36,36,0,0,0-71.75-1.81,24.74,24.74,0,0,1,0-2.59,36,36,0,1,1,72,1.82Z"/><path class="cls-6" d="M1481.66,1109.35l.11-4.38a12.59,12.59,0,0,1-6.59-2.08l1.11-2.88a11.49,11.49,0,0,0,6.2,2c3.08.07,5.21-1.65,5.27-4.12s-1.59-3.91-4.77-5.29c-4.38-1.84-7.06-3.91-7-7.68.09-3.6,2.72-6.27,6.73-6.82l.11-4.38,2.69.07-.11,4.21a11.54,11.54,0,0,1,5.6,1.66l-1.15,2.83a10.56,10.56,0,0,0-5.43-1.61c-3.34-.09-4.65,1.88-4.69,3.61-.06,2.26,1.52,3.43,5.25,5.08,4.42,1.94,6.62,4.25,6.52,8.11-.08,3.43-2.55,6.57-7,7.2l-.11,4.51Z"/><rect class="cls-9" x="851.02" y="926.24" width="211.83" height="211.83"/><rect class="cls-10" x="919.05" y="926.29" width="211.83" height="211.83"/><rect class="cls-11" x="938.84" y="1109.12" width="37.88" height="11.94"/><rect class="cls-12" x="1014.23" y="926.29" width="31.33" height="175.02"/><rect class="cls-12" x="1014.16" y="1093.36" width="31.33" height="44.75"/><rect class="cls-9" x="809.9" y="717.5" width="211.83" height="211.83"/><rect class="cls-10" x="877.92" y="717.55" width="211.83" height="211.83"/><rect class="cls-11" x="897.71" y="900.39" width="37.88" height="11.94"/><rect class="cls-12" x="973.11" y="717.55" width="31.33" height="175.02"/><rect class="cls-12" x="973.04" y="884.63" width="31.33" height="44.75"/><rect class="cls-9" x="1110.04" y="717.5" width="211.83" height="211.83"/><rect class="cls-10" x="1178.06" y="717.55" width="211.83" height="211.83"/><rect class="cls-11" x="1197.85" y="900.39" width="37.88" height="11.94"/><rect class="cls-12" x="1273.25" y="717.55" width="31.33" height="175.02"/><rect class="cls-12" x="1273.18" y="884.63" width="31.33" height="44.75"/><rect class="cls-9" x="1141.53" y="926.26" width="211.83" height="211.83"/><rect class="cls-10" x="1209.56" y="926.31" width="211.83" height="211.83"/><rect class="cls-11" x="1229.34" y="1109.15" width="37.88" height="11.94"/><rect class="cls-12" x="1304.74" y="926.31" width="31.33" height="175.02"/><rect class="cls-12" x="1304.67" y="1093.39" width="31.33" height="44.75"/><rect class="cls-9" x="594.51" y="926.24" width="211.83" height="211.83"/><rect class="cls-10" x="662.53" y="926.29" width="211.83" height="211.83"/><rect class="cls-11" x="682.32" y="1109.12" width="37.88" height="11.94"/><rect class="cls-12" x="757.72" y="926.29" width="31.33" height="175.02"/><rect class="cls-12" x="757.65" y="1093.36" width="31.33" height="44.75"/><rect class="cls-9" x="553.38" y="717.5" width="211.83" height="211.83"/><rect class="cls-10" x="621.41" y="717.55" width="211.83" height="211.83"/><rect class="cls-11" x="641.2" y="900.39" width="37.88" height="11.94"/><rect class="cls-12" x="716.6" y="717.55" width="31.33" height="175.02"/><rect class="cls-12" x="716.52" y="884.63" width="31.33" height="44.75"/><rect class="cls-9" x="587.4" y="507.21" width="211.83" height="211.83"/><rect class="cls-10" x="655.42" y="507.25" width="211.83" height="211.83"/><rect class="cls-11" x="675.21" y="690.09" width="37.88" height="11.94"/><rect class="cls-12" x="750.61" y="507.26" width="31.33" height="175.02"/><rect class="cls-12" x="750.53" y="674.33" width="31.33" height="44.75"/><rect class="cls-9" x="1001.01" y="507.21" width="211.83" height="211.83"/><rect class="cls-10" x="1069.04" y="507.25" width="211.83" height="211.83"/><rect class="cls-11" x="1088.83" y="690.09" width="37.88" height="11.94"/><rect class="cls-12" x="1164.22" y="507.26" width="31.33" height="175.02"/><rect class="cls-12" x="1164.15" y="674.33" width="31.33" height="44.75"/><path class="cls-11" d="M1275.06,615.31c-1.28-2.94-2.53-5.84-3.75-8.73l4.37-1.83q1.8,4.29,3.71,8.66Z"/><path class="cls-11" d="M1264.23,589q-1.11-2.91-2.17-5.77-2.26-6.11-4.31-12.07l4.48-1.54q2,5.91,4.26,12,1.07,2.85,2.16,5.73Zm-7.76-37.27-4.53,1.36c-1.87-6.22-3.57-12.38-5.06-18.31l4.59-1.15C1252.94,539.45,1254.62,545.54,1256.47,551.69Zm-9.15-36.4-4.64.93c-1.27-6.34-2.35-12.65-3.22-18.74l4.68-.67C1245,502.82,1246.07,509,1247.32,515.29Zm-5.26-37.09-4.72.37c-.51-6.38-.8-12.78-.87-19l4.73-.05C1241.27,465.63,1241.56,471.92,1242.06,478.2Zm-.34-37.37-4.72-.32c.42-6.4,1.11-12.78,2-18.95l4.68.71C1242.81,428.31,1242.14,434.55,1241.72,440.83Zm5.62-36.87-4.6-1.12c1.51-6.19,3.33-12.35,5.39-18.32l4.47,1.55C1250.58,391.9,1248.81,397.92,1247.34,404Zm12.17-35.21-4.3-2c2.62-5.75,5.55-11.46,8.71-17l4.11,2.35C1264.94,357.55,1262.07,363.14,1259.51,368.75ZM1278,336.37l-3.89-2.7c3.57-5.13,7.45-10.25,11.53-15.22l3.66,3C1285.31,326.33,1281.51,331.35,1278,336.37Zm23.74-28.92-3.43-3.26c4.28-4.49,8.84-9,13.59-13.36l3.21,3.48C1310.46,298.62,1306,303,1301.76,307.45ZM1329.28,282l-3-3.66c4.73-3.89,9.77-7.85,15-11.74l2.83,3.78C1338.93,274.21,1334,278.12,1329.28,282Zm30.09-22.6-2.69-3.89q7.85-5.42,15.82-10.55l2.57,4Q1367.15,254,1359.37,259.38ZM1391,238.89l-2.47-4q8.13-5,16.25-9.76l2.41,4.07Q1399.16,233.93,1391,238.89Z"/><rect class="cls-11" x="1422.06" y="212.65" width="9.45" height="4.73" transform="translate(84.82 745.18) rotate(-30.13)"/><polygon class="cls-13" points="1422.45 203.43 1446.62 229.88 1508.35 178.32 1434.92 192.03 1422.45 203.43"/><polygon class="cls-11" points="1427.2 183.57 1508.35 178.32 1422.45 203.43 1427.2 183.57"/><polygon class="cls-11" points="1508.35 178.32 1427.91 232.41 1423.16 211.27 1508.35 178.32"/><path class="cls-14" d="M446.24,17.62A17.78,17.78,0,1,1,428.31,0,17.78,17.78,0,0,1,446.24,17.62Z"/><path class="cls-14" d="M1614.59,157.55a17.78,17.78,0,1,1-17.93-17.61A17.78,17.78,0,0,1,1614.59,157.55Z"/><path class="cls-14" d="M823.23,353.19a17.78,17.78,0,1,1-17.94-17.62A17.78,17.78,0,0,1,823.23,353.19Z"/><path class="cls-14" d="M203.63,274.2a9,9,0,1,1-9.07-8.92A9,9,0,0,1,203.63,274.2Z"/><path class="cls-14" d="M185.64,627.15a9,9,0,1,1-9.07-8.92A9,9,0,0,1,185.64,627.15Z"/><path class="cls-14" d="M1314.58,435a9.41,9.41,0,1,1-9.49-9.32A9.4,9.4,0,0,1,1314.58,435Z"/><path class="cls-14" d="M1561.79,618.15a9.4,9.4,0,1,1-9.49-9.32A9.41,9.41,0,0,1,1561.79,618.15Z"/><path class="cls-14" d="M1131.46,318.41a4.76,4.76,0,1,1-4.8-4.72A4.76,4.76,0,0,1,1131.46,318.41Z"/><path class="cls-14" d="M1393.32,17.74a4.76,4.76,0,1,1-4.8-4.72A4.75,4.75,0,0,1,1393.32,17.74Z"/><path class="cls-14" d="M1664.54,421.51a4.76,4.76,0,1,1-4.8-4.71A4.76,4.76,0,0,1,1664.54,421.51Z"/><circle class="cls-14" cx="564.01" cy="293.85" r="52.25"/><circle class="cls-14" cx="517.68" cy="234.63" r="29.91"/><rect class="cls-9" x="1226.81" y="93.46" width="30.25" height="30.25" transform="translate(36.89 -210.87) rotate(9.85)"/><rect class="cls-10" x="1236.38" y="95.12" width="30.25" height="30.25" transform="translate(37.31 -212.49) rotate(9.85)"/><rect class="cls-12" x="1250.41" y="95.28" width="4.47" height="25" transform="translate(36.89 -212.67) rotate(9.85)"/><rect class="cls-12" x="1247.92" y="118.92" width="4.47" height="6.39" transform="translate(39.41 -212.4) rotate(9.87)"/><rect class="cls-15" x="1228.63" y="60.37" width="0.65" height="30.73" transform="translate(-2.14 53.76) rotate(-2.5)"/><rect class="cls-15" x="1224.81" y="75.33" width="34.71" height="0.65" transform="translate(955.34 1286.61) rotate(-80.16)"/><rect class="cls-15" x="1250.84" y="80.67" width="34.62" height="0.64" transform="translate(834.15 1275.31) rotate(-73.68)"/><rect class="cls-15" x="1259.03" y="83.27" width="30.59" height="0.64" transform="translate(753.13 1249.46) rotate(-69.67)"/><path class="cls-16" d="M1244.48,62.72a8.15,8.15,0,0,0-16.14-1.62l-.63-.11c0-.13,0-.25.06-.39A26.7,26.7,0,0,1,1254,38.48C1245.14,48.25,1244.52,60.86,1244.48,62.72Z"/><path class="cls-16" d="M1280.36,69.74c0,.13,0,.26-.07.38l-.91-.15c0-2.85-1.19-5.15-3-5.47-1.69-.29-3.42,1.16-4.42,3.48,1.4-9.36-.19-18.84-3.3-25.18A26.7,26.7,0,0,1,1280.36,69.74Z"/><path class="cls-17" d="M1271.93,68c-.09.2-.18.42-.26.65h0A14,14,0,0,0,1244.48,63v-.24c0-1.86.66-14.47,9.49-24.24a26.33,26.33,0,0,1,4.66.39,26.69,26.69,0,0,1,10,3.93C1271.74,49.14,1273.33,58.62,1271.93,68Z"/><rect class="cls-9" x="719.32" y="202.01" width="57.76" height="57.76" transform="translate(-20.79 83.36) rotate(-6.29)"/><rect class="cls-10" x="737.75" y="199.98" width="57.76" height="57.76" transform="translate(-20.46 85.35) rotate(-6.29)"/><rect class="cls-12" x="763.15" y="199.86" width="8.54" height="47.72" transform="translate(-19.9 85.48) rotate(-6.29)"/><rect class="cls-12" x="766.19" y="245.25" width="8.54" height="12.2" transform="translate(-22.88 85.84) rotate(-6.28)"/><rect class="cls-11" x="706.33" y="148.21" width="1.23" height="58.68" transform="translate(-19.66 235.31) rotate(-18.64)"/><rect class="cls-11" x="730.52" y="137.25" width="1.23" height="66.27" transform="translate(-14.24 80.9) rotate(-6.27)"/><rect class="cls-11" x="748.57" y="165.76" width="66.1" height="1.23" transform="translate(613.38 947.6) rotate(-89.86)"/><rect class="cls-11" x="765.13" y="167.26" width="58.4" height="1.23" transform="translate(569.23 947.91) rotate(-85.84)"/><path class="cls-16" d="M728.52,145.44A15.55,15.55,0,0,0,698.07,151l-1.22.14c0-.25-.07-.49-.09-.75a50.94,50.94,0,0,1,36.31-54.48C722.05,118.55,727.61,142,728.52,145.44Z"/><path class="cls-16" d="M798.06,139.25c0,.26.05.5.06.75l-1.75.2c-1.47-5.23-4.9-8.81-8.45-8.42-3.25.36-5.66,3.95-6.27,8.73-2.39-17.91-10.34-34.46-19.4-44.43A51,51,0,0,1,798.06,139.25Z"/><path class="cls-17" d="M781.65,140.51c0,.42-.1.87-.13,1.32l0,0a26.78,26.78,0,0,0-52.84,4l-.12-.43c-.91-3.44-6.47-26.89,4.55-49.5a50,50,0,0,1,8.75-1.75,50.8,50.8,0,0,1,20.43,1.89C771.31,106.05,779.26,122.6,781.65,140.51Z"/></g></g></g></svg>